<svg width="148" height="148" viewBox="0 0 148 148" fill="none" xmlns="http://www.w3.org/2000/svg">
<path d="M117.736 1.21476C116.943 0.66759 116.048 0.293906 115.108 0.117051C114.168 -0.0598038 113.202 -0.03603 112.271 0.186887C111.34 0.409805 110.464 0.827075 109.697 1.41263C108.931 1.99819 108.29 2.73945 107.816 3.5901L101.813 14.2792C97.7337 9.52847 68.1821 -1.82569 39.2332 12.5927C38.404 13.0141 37.6653 13.601 37.0603 14.3189C36.4554 15.0368 35.9963 15.8712 35.7101 16.7733C34.8006 16.579 33.8624 16.5735 32.9507 16.7571C32.0391 16.9407 31.1726 17.3097 30.4025 17.8422C21.7412 23.8675 14.5285 31.8305 9.30891 41.13C4.08928 50.4295 0.999047 60.8227 0.271439 71.525C0.17267 72.4586 0.254923 73.403 0.51347 74.3039C0.772016 75.2048 1.20176 76.0444 1.77799 76.7745C1.1566 77.4843 0.68052 78.3146 0.377944 79.2163C0.075369 80.118 -0.0475446 81.0728 0.0164846 82.0241C0.757342 92.7366 3.86535 103.136 9.10548 112.437C14.3456 121.737 21.5806 129.694 30.2634 135.707C31.0306 136.245 31.8978 136.616 32.811 136.796C33.7242 136.976 34.6638 136.961 35.5711 136.752C35.8599 137.65 36.3202 138.48 36.925 139.193C37.5299 139.907 38.2672 140.49 39.0941 140.909C48.5352 145.576 58.8821 148 69.3642 148C79.8462 148 90.1932 145.576 99.6343 140.909C100.466 140.485 101.206 139.894 101.811 139.172C102.416 138.45 102.874 137.611 103.157 136.705C104.065 136.913 105.004 136.928 105.917 136.749C106.831 136.569 107.698 136.198 108.465 135.659C117.148 129.647 124.383 121.689 129.623 112.389C134.863 103.089 137.971 92.6891 138.712 81.9766C138.76 81.0282 138.623 80.0794 138.309 79.1861C137.994 78.2928 137.509 77.4728 136.881 76.7745C134.076 73.7104 136.44 74.3992 73.3739 74.3992L80.0723 62.5225H141.03C141.985 62.5249 142.931 62.3254 143.808 61.9365C144.685 61.5476 145.474 60.9776 146.127 60.2621C146.779 59.5467 147.281 58.701 147.6 57.778C147.92 56.855 148.05 55.8745 147.983 54.8976C147.242 44.1851 144.134 33.7854 138.894 24.4851C133.654 15.1848 126.419 7.22746 117.736 1.21476ZM93.9789 125.232C86.3809 129.299 77.9361 131.423 69.3642 131.423C60.7923 131.423 52.3475 129.299 44.7495 125.232L69.3642 81.5252L93.9789 125.232ZM69.3642 72.0238L44.7495 28.3412C52.3339 24.2845 60.7625 22.166 69.3178 22.166C77.8731 22.166 86.3017 24.2845 93.8862 28.3412C69.3642 72.0238 77.9167 56.8454 69.3642 72.0238ZM65.3544 74.3992H16.0555C16.4386 65.6202 18.8824 57.0655 23.1796 49.461C27.4768 41.8564 33.5005 35.4264 40.7397 30.7166L65.3544 74.3992ZM65.3544 79.1499L40.7397 122.833C33.5005 118.123 27.4768 111.693 23.1796 104.088C18.8824 96.4835 16.4386 87.9288 16.0555 79.1499H65.3544ZM39.859 18.2697C39.9517 17.969 40.1019 17.6902 40.3009 17.4496C40.4998 17.2089 40.7436 17.0113 41.0178 16.8683C49.8315 12.5174 59.4886 10.2581 69.2715 10.2581C79.0543 10.2581 88.7114 12.5174 97.5251 16.8683C97.7994 17.0113 98.0431 17.2089 98.2421 17.4496C98.441 17.6902 98.5913 17.969 98.684 18.2697C99.0316 19.4812 98.4754 19.98 96.1113 24.1844C87.8202 19.7154 78.5929 17.3803 69.2251 17.3803C59.8573 17.3803 50.63 19.7154 42.339 24.1844C40.3689 20.5501 39.5345 19.7662 39.9517 18.2697H39.859ZM32.9057 21.7615C33.407 21.432 34.0129 21.3129 34.5976 21.429C35.9188 21.7378 36.0578 22.4979 38.3756 26.6072C30.4427 31.7416 23.8451 38.7734 19.1498 47.0981C14.4544 55.4229 11.8018 64.7917 11.4199 74.3992H6.9698C6.65336 74.3998 6.34015 74.3339 6.04948 74.2058C5.75881 74.0776 5.49684 73.8898 5.27969 73.6539C5.06254 73.418 4.89483 73.139 4.78688 72.8342C4.67893 72.5293 4.63304 72.205 4.65203 71.8813C5.34929 61.8822 8.25243 52.1758 13.1426 43.4939C18.0328 34.812 24.7824 27.3811 32.8825 21.7615H32.9057ZM32.9057 131.788C24.7945 126.176 18.0342 118.748 13.1355 110.065C8.23688 101.382 5.32804 91.6718 4.62885 81.6678C4.6116 81.3466 4.65818 81.0252 4.76575 80.7231C4.87332 80.4209 5.03965 80.1443 5.25465 79.91C6.15858 78.9124 6.78437 79.1499 11.4199 79.1499C11.8068 88.7617 14.4665 98.1333 19.1701 106.458C23.8738 114.784 30.4805 121.813 38.4219 126.942C35.9419 131.408 35.8956 131.835 34.5976 132.12C34.0055 132.243 33.3901 132.123 32.8825 131.788H32.9057ZM98.7999 135.279C98.7072 135.58 98.5569 135.859 98.358 136.1C98.159 136.34 97.9153 136.538 97.641 136.681C88.8273 141.032 79.1702 143.291 69.3874 143.291C59.6045 143.291 49.9474 141.032 41.1337 136.681C40.8595 136.538 40.6157 136.34 40.4167 136.1C40.2178 135.859 40.0676 135.58 39.9748 135.279C39.5808 133.949 40.1371 133.45 42.4549 129.341C50.7624 133.81 60.0047 136.145 69.3874 136.145C78.77 136.145 88.0123 133.81 96.3199 129.341C98.3595 132.999 99.1939 133.783 98.7767 135.279H98.7999ZM133.566 79.91C133.781 80.1443 133.948 80.4209 134.055 80.7231C134.163 81.0252 134.209 81.3466 134.192 81.6678C133.496 91.6697 130.59 101.379 125.696 110.061C120.801 118.744 114.045 126.173 105.939 131.788C105.675 131.963 105.379 132.081 105.069 132.135C104.759 132.19 104.441 132.179 104.135 132.103C103.83 132.027 103.542 131.889 103.29 131.696C103.038 131.503 102.828 131.259 102.671 130.98L100.353 126.942C108.286 121.807 114.883 114.776 119.579 106.451C124.274 98.1262 126.927 88.7574 127.308 79.1499C131.944 79.1499 132.57 78.9124 133.474 79.91H133.566ZM97.9886 122.833L73.3739 79.1499H122.673C122.29 87.9288 119.846 96.4835 115.549 104.088C111.252 111.693 105.228 118.123 97.9886 122.833ZM82.7377 57.7718C84.731 54.2563 105.29 17.5809 107.26 14.0891C114.488 18.8108 120.504 25.2436 124.799 32.8456C129.095 40.4477 131.546 48.9964 131.944 57.7718H82.7377ZM142.745 57.0117C141.818 58.0093 141.146 57.7718 136.51 57.7718C136.118 48.1665 133.462 38.8016 128.767 30.4784C124.073 22.1552 117.48 15.1217 109.554 9.97979L111.872 5.9417C112.029 5.66245 112.24 5.41888 112.492 5.22581C112.744 5.03274 113.031 4.89421 113.337 4.81866C113.643 4.7431 113.96 4.7321 114.27 4.78633C114.58 4.84056 114.876 4.95887 115.14 5.13408C123.247 10.7486 130.003 18.1778 134.897 26.8604C139.792 35.5429 142.697 45.2519 143.394 55.2539C143.408 55.5767 143.358 55.8991 143.246 56.2014C143.135 56.5036 142.964 56.7793 142.745 57.0117Z" fill="#00B012"/>
<path d="M107.607 36.3935C106.003 36.3935 104.435 36.8811 103.1 37.7946C101.766 38.7081 100.727 40.0066 100.113 41.5257C99.4987 43.0448 99.338 44.7164 99.6511 46.3291C99.9641 47.9418 100.737 49.4232 101.871 50.5859C103.006 51.7486 104.451 52.5404 106.025 52.8612C107.598 53.182 109.229 53.0173 110.712 52.3881C112.194 51.7588 113.461 50.6932 114.352 49.3261C115.244 47.9589 115.72 46.3515 115.72 44.7072C115.72 42.5023 114.865 40.3876 113.344 38.8285C111.822 37.2694 109.759 36.3935 107.607 36.3935ZM107.607 48.2702C106.685 48.2702 105.801 47.8948 105.149 47.2266C104.497 46.5584 104.131 45.6522 104.131 44.7072C104.131 43.7622 104.497 42.856 105.149 42.1878C105.801 41.5196 106.685 41.1442 107.607 41.1442C108.529 41.1442 109.414 41.5196 110.066 42.1878C110.718 42.856 111.084 43.7622 111.084 44.7072C111.084 45.6522 110.718 46.5584 110.066 47.2266C109.414 47.8948 108.529 48.2702 107.607 48.2702Z" fill="#00B012"/>
<path d="M62.4109 42.3317C62.4109 43.976 62.8866 45.5833 63.778 46.9505C64.6694 48.3177 65.9363 49.3833 67.4187 50.0125C68.901 50.6418 70.5321 50.8064 72.1057 50.4856C73.6793 50.1648 75.1247 49.373 76.2592 48.2103C77.3938 47.0476 78.1664 45.5663 78.4794 43.9536C78.7924 42.3409 78.6317 40.6693 78.0177 39.1501C77.4038 37.631 76.364 36.3326 75.03 35.4191C73.6959 34.5055 72.1275 34.0179 70.5231 34.0179C68.3716 34.0179 66.3082 34.8938 64.7869 36.453C63.2655 38.0121 62.4109 40.1267 62.4109 42.3317ZM70.5231 38.7686C71.4451 38.7686 72.3294 39.144 72.9814 39.8122C73.6334 40.4804 73.9997 41.3867 73.9997 42.3317C73.9997 43.2766 73.6334 44.1829 72.9814 44.8511C72.3294 45.5193 71.4451 45.8947 70.5231 45.8947C69.601 45.8947 68.7167 45.5193 68.0647 44.8511C67.4127 44.1829 67.0464 43.2766 67.0464 42.3317C67.0464 41.3867 67.4127 40.4804 68.0647 39.8122C68.7167 39.144 69.601 38.7686 70.5231 38.7686Z" fill="#00B012"/>
<path d="M102.972 93.4017C101.367 93.4017 99.799 93.8893 98.465 94.8028C97.1309 95.7163 96.0911 97.0148 95.4772 98.5339C94.8632 100.053 94.7025 101.725 95.0155 103.337C95.3285 104.95 96.1011 106.431 97.2357 107.594C98.3702 108.757 99.8156 109.549 101.389 109.869C102.963 110.19 104.594 110.026 106.076 109.396C107.559 108.767 108.826 107.701 109.717 106.334C110.608 104.967 111.084 103.36 111.084 101.715C111.084 99.5105 110.229 97.3959 108.708 95.8367C107.187 94.2776 105.123 93.4017 102.972 93.4017ZM102.972 105.278C102.05 105.278 101.165 104.903 100.513 104.235C99.8615 103.567 99.4952 102.66 99.4952 101.715C99.4952 100.77 99.8615 99.8642 100.513 99.196C101.165 98.5278 102.05 98.1524 102.972 98.1524C103.894 98.1524 104.778 98.5278 105.43 99.196C106.082 99.8642 106.449 100.77 106.449 101.715C106.449 102.66 106.082 103.567 105.43 104.235C104.778 104.903 103.894 105.278 102.972 105.278Z" fill="#00B012"/>
<path d="M68.2053 100.528C66.6008 100.528 65.0324 101.015 63.6984 101.929C62.3643 102.842 61.3246 104.141 60.7106 105.66C60.0966 107.179 59.9359 108.851 60.249 110.463C60.562 112.076 61.3346 113.557 62.4691 114.72C63.6036 115.883 65.0491 116.675 66.6227 116.995C68.1963 117.316 69.8274 117.151 71.3097 116.522C72.792 115.893 74.0589 114.827 74.9503 113.46C75.8417 112.093 76.3175 110.486 76.3175 108.841C76.3175 106.636 75.4628 104.522 73.9415 102.963C72.4201 101.404 70.3568 100.528 68.2053 100.528ZM68.2053 112.404C67.2832 112.404 66.3989 112.029 65.7469 111.361C65.0949 110.693 64.7286 109.786 64.7286 108.841C64.7286 107.896 65.0949 106.99 65.7469 106.322C66.3989 105.654 67.2832 105.278 68.2053 105.278C69.1273 105.278 70.0116 105.654 70.6636 106.322C71.3156 106.99 71.6819 107.896 71.6819 108.841C71.6819 109.786 71.3156 110.693 70.6636 111.361C70.0116 112.029 69.1273 112.404 68.2053 112.404Z" fill="#00B012"/>
<path d="M38.0743 105.278C39.6787 105.278 41.2471 104.791 42.5812 103.877C43.9152 102.964 44.955 101.665 45.569 100.146C46.183 98.627 46.3436 96.9554 46.0306 95.3427C45.7176 93.73 44.945 92.2487 43.8105 91.086C42.676 89.9233 41.2305 89.1315 39.6569 88.8107C38.0833 88.4899 36.4522 88.6545 34.9699 89.2838C33.4876 89.913 32.2206 90.9786 31.3292 92.3458C30.4379 93.713 29.9621 95.3204 29.9621 96.9647C29.9621 99.1696 30.8168 101.284 32.3381 102.843C33.8594 104.402 35.9228 105.278 38.0743 105.278ZM38.0743 93.4016C38.9964 93.4016 39.8807 93.777 40.5327 94.4452C41.1847 95.1134 41.5509 96.0197 41.5509 96.9647C41.5509 97.9096 41.1847 98.8159 40.5327 99.4841C39.8807 100.152 38.9964 100.528 38.0743 100.528C37.1522 100.528 36.2679 100.152 35.6159 99.4841C34.9639 98.8159 34.5976 97.9096 34.5976 96.9647C34.5976 96.0197 34.9639 95.1134 35.6159 94.4452C36.2679 93.777 37.1522 93.4016 38.0743 93.4016Z" fill="#00B012"/>
<path d="M25.3265 58.9593C25.3265 60.6036 25.8023 62.211 26.6937 63.5781C27.5851 64.9453 28.852 66.0109 30.3343 66.6402C31.8166 67.2694 33.4477 67.434 35.0213 67.1133C36.595 66.7925 38.0404 66.0007 39.1749 64.838C40.3094 63.6753 41.082 62.1939 41.3951 60.5812C41.7081 58.9685 41.5474 57.2969 40.9334 55.7778C40.3194 54.2586 39.2797 52.9602 37.9456 52.0467C36.6116 51.1332 35.0432 50.6456 33.4387 50.6456C31.2872 50.6456 29.2239 51.5215 27.7025 53.0806C26.1812 54.6397 25.3265 56.7543 25.3265 58.9593ZM33.4387 55.3963C34.3608 55.3963 35.2451 55.7717 35.8971 56.4398C36.5491 57.108 36.9154 58.0143 36.9154 58.9593C36.9154 59.9043 36.5491 60.8105 35.8971 61.4787C35.2451 62.1469 34.3608 62.5223 33.4387 62.5223C32.5167 62.5223 31.6324 62.1469 30.9804 61.4787C30.3284 60.8105 29.9621 59.9043 29.9621 58.9593C29.9621 58.0143 30.3284 57.108 30.9804 56.4398C31.6324 55.7717 32.5167 55.3963 33.4387 55.3963Z" fill="#00B012"/>
<path d="M109.438 26.2036L115.233 32.142C115.669 32.5893 116.261 32.8406 116.878 32.8406C117.496 32.8406 118.088 32.5893 118.524 32.142C118.961 31.6947 119.206 31.0881 119.206 30.4555C119.206 29.823 118.961 29.2163 118.524 28.769L112.73 22.8306C112.293 22.3834 111.701 22.1321 111.084 22.1321C110.467 22.1321 109.875 22.3834 109.438 22.8306C109.002 23.2779 108.757 23.8846 108.757 24.5171C108.757 25.1497 109.002 25.7564 109.438 26.2036Z" fill="#00B012"/>
<path d="M97.1774 88.6511H106.449C107.063 88.6511 107.653 88.4008 108.087 87.9554C108.522 87.5099 108.766 86.9057 108.766 86.2757C108.766 85.6458 108.522 85.0416 108.087 84.5961C107.653 84.1506 107.063 83.9004 106.449 83.9004H97.1774C96.5627 83.9004 95.9732 84.1506 95.5385 84.5961C95.1038 85.0416 94.8596 85.6458 94.8596 86.2757C94.8596 86.9057 95.1038 87.5099 95.5385 87.9554C95.9732 88.4008 96.5627 88.6511 97.1774 88.6511Z" fill="#00B012"/>
<path d="M74.556 126.657L83.8271 124.281C84.4418 124.13 84.9727 123.735 85.303 123.183C85.6334 122.63 85.7361 121.966 85.5886 121.336C85.441 120.706 85.0554 120.162 84.5164 119.823C83.9774 119.485 83.3292 119.379 82.7145 119.531L73.4435 121.906C72.8287 122.057 72.2978 122.452 71.9675 123.005C71.6371 123.557 71.5344 124.221 71.6819 124.851C71.8295 125.481 72.2152 126.026 72.7541 126.364C73.2931 126.703 73.9413 126.808 74.556 126.657Z" fill="#00B012"/>
<path d="M49.5472 90.6227C50.0561 90.9025 50.6486 90.9774 51.2086 90.8329C51.7687 90.6885 52.2559 90.3349 52.5749 89.8416C52.8939 89.3482 53.0217 88.7506 52.9332 88.1657C52.8448 87.5808 52.5465 87.0509 52.0968 86.6796L45.1434 81.9289C44.6345 81.6492 44.0421 81.5742 43.482 81.7187C42.922 81.8631 42.4348 82.2167 42.1158 82.71C41.7968 83.2034 41.669 83.801 41.7574 84.3859C41.8459 84.9708 42.1442 85.5007 42.5939 85.872L49.5472 90.6227Z" fill="#00B012"/>
<path d="M45.1435 64.6364C55.1562 69.7672 54.6927 69.6484 55.4575 69.6484C55.9765 69.6453 56.4795 69.4637 56.8858 69.1328C57.2921 68.8018 57.5783 68.3407 57.6986 67.8233C57.8188 67.3059 57.766 66.7621 57.5488 66.279C57.3316 65.7959 56.9625 65.4015 56.5005 65.159L47.2295 60.4083C46.6892 60.1778 46.0838 60.1652 45.5349 60.3731C44.986 60.5811 44.5341 60.9941 44.2701 61.5293C44.006 62.0646 43.9493 62.6824 44.1113 63.2587C44.2733 63.835 44.642 64.3272 45.1435 64.6364Z" fill="#00B012"/>
<path d="M63.6856 27.1535L54.4145 31.9042C53.9526 32.1467 53.5835 32.5411 53.3663 33.0242C53.149 33.5072 53.0963 34.051 53.2165 34.5685C53.3367 35.0859 53.6229 35.547 54.0293 35.8779C54.4356 36.2089 54.9385 36.3905 55.4575 36.3936C56.2456 36.3936 55.7589 36.5124 65.7716 31.3816C66.2731 31.0724 66.6418 30.5802 66.8038 30.0039C66.9658 29.4276 66.9091 28.8098 66.645 28.2745C66.381 27.7393 65.9291 27.3262 65.3802 27.1183C64.8312 26.9104 64.2259 26.9229 63.6856 27.1535Z" fill="#00B012"/>
</svg>
