<svg width="366" height="367" viewBox="0 0 366 367" fill="none" xmlns="http://www.w3.org/2000/svg">
<g clip-path="url(#clip0_860_891)">
<path d="M261.576 18.0308C139.137 -40.2433 9.01137e-06 50.113 9.01137e-06 183.245C-0.0102655 215.99 8.76563 248.138 25.4124 276.336C42.0591 304.534 65.9668 327.748 94.6419 343.558C123.317 359.369 155.709 367.195 188.439 366.222C221.17 365.249 253.04 355.511 280.725 338.025C308.409 320.539 330.896 295.944 345.837 266.807C360.779 237.67 367.629 205.058 365.673 172.371C363.717 139.685 353.027 108.122 334.717 80.975C316.407 53.8277 291.148 32.0906 261.576 18.0308ZM263.062 263.308C258.512 263.308 254.149 265.116 250.931 268.333C247.714 271.55 245.906 275.914 245.906 280.464V309.058C245.906 310.575 245.304 312.029 244.231 313.102C243.159 314.174 241.704 314.777 240.188 314.777C238.671 314.777 237.216 314.174 236.144 313.102C235.071 312.029 234.469 310.575 234.469 309.058C234.477 306.708 233.919 304.391 232.843 302.302C231.767 300.213 230.203 298.414 228.285 297.057C226.367 295.7 224.15 294.824 221.822 294.504C219.495 294.184 217.124 294.429 214.911 295.219C190.263 303.74 182.943 304.826 172.02 301.624C169.973 301.019 167.814 300.9 165.714 301.276C163.613 301.652 161.629 302.512 159.919 303.789C158.209 305.066 156.821 306.724 155.864 308.631C154.907 310.539 154.408 312.643 154.406 314.777C154.39 315.903 154.042 316.999 153.406 317.928C152.769 318.857 151.872 319.578 150.828 319.999C149.784 320.421 148.638 320.524 147.535 320.297C146.432 320.07 145.42 319.522 144.627 318.723C142.397 316.607 142.969 314.777 142.969 306.027C142.969 296.019 135.706 292.474 130.159 289.729C127.898 288.575 125.377 288.027 122.842 288.137C120.306 288.248 117.842 289.013 115.69 290.358C108.084 295.047 108.656 301.795 108.656 308.429C108.776 309.609 108.526 310.797 107.941 311.828C107.356 312.86 106.464 313.684 105.39 314.186C104.316 314.689 103.112 314.845 101.945 314.633C100.778 314.421 99.7062 313.852 98.8772 313.004C96.6469 310.888 97.2188 310.145 97.2188 291.616C97.1615 278.058 91.7567 265.069 82.1784 255.473C78.543 252.012 74.725 248.748 70.7409 245.694C40.2028 221.332 55.7006 217.1 40.3172 177.87C25.9631 141.098 41.5753 144.873 48.0375 103.183C51.3544 81.5661 53.7563 77.6201 70.9125 63.838C80.0625 56.4608 95.2744 41.878 99.7922 33.4142C101.451 30.2689 181.856 -13.5367 266.265 33.4142C271.984 39.762 277.302 47.4823 283.822 54.0589C293.258 63.1517 305.839 70.0714 311.786 80.308C317.734 90.5445 317.505 104.727 320.765 117.709C324.024 130.69 331.688 142.471 331.688 154.652C331.688 166.833 324.139 179.071 320.765 191.595C317.391 204.119 317.677 218.873 311.729 229.11C307.783 236.315 291.656 253.357 291.656 286.183C291.656 287.7 291.054 289.154 289.981 290.227C288.909 291.299 287.454 291.902 285.938 291.902C284.421 291.902 282.966 291.299 281.894 290.227C280.821 289.154 280.219 287.7 280.219 286.183V280.464C280.219 275.914 278.411 271.55 275.194 268.333C271.976 265.116 267.613 263.308 263.062 263.308ZM183 354.808C47.9803 354.808 -34.3125 205.034 38.5444 90.9448C36.6 100.266 36.0853 107.586 34.3125 114.62C30.9956 126.973 22.875 139.611 22.875 154.652C22.875 169.692 30.8241 182.102 34.3125 194.683C37.8009 207.264 37.2291 222.305 44.4919 234.714C51.7547 247.124 64.8506 254.158 74.4009 263.765C87.7828 277.262 85.7813 291.902 85.7813 309.058C85.7716 311.447 86.2609 313.812 87.218 316.001C88.1751 318.19 89.5788 320.155 91.3392 321.77C93.0996 323.385 95.178 324.614 97.4411 325.38C99.7042 326.145 102.102 326.429 104.482 326.214C108.823 325.705 112.821 323.606 115.705 320.321C118.588 317.036 120.152 312.799 120.094 308.429V302.71C120.083 302.121 120.227 301.539 120.511 301.023C120.795 300.507 121.209 300.074 121.712 299.767C122.215 299.461 122.79 299.291 123.379 299.276C123.968 299.26 124.551 299.4 125.069 299.679C129.644 301.91 131.531 302.481 131.531 305.741C131.531 314.319 130.559 320.724 136.507 326.557C139.723 329.77 144.084 331.575 148.63 331.575C153.177 331.575 157.537 329.77 160.754 326.557C167.445 319.981 164.586 314.205 166.759 312.604C168.932 311.002 172.477 314.376 183 314.376C195.246 313.111 207.256 310.147 218.685 305.57C219.211 305.395 219.772 305.354 220.318 305.452C220.864 305.55 221.376 305.783 221.808 306.13C222.24 306.477 222.579 306.927 222.793 307.438C223.006 307.95 223.088 308.507 223.031 309.058C223.031 313.608 224.839 317.972 228.056 321.189C231.274 324.407 235.637 326.214 240.188 326.214C244.738 326.214 249.101 324.407 252.319 321.189C255.536 317.972 257.344 313.608 257.344 309.058V280.464C257.344 278.948 257.946 277.493 259.019 276.42C260.091 275.348 261.546 274.745 263.062 274.745C264.579 274.745 266.034 275.348 267.106 276.42C268.179 277.493 268.781 278.948 268.781 280.464V286.183C268.781 308.257 303.094 310.545 303.094 284.01C303.094 257.475 318.935 239.747 321.737 234.714C328.885 222.247 328.542 207.035 331.859 194.683C335.176 182.33 343.297 169.692 343.297 154.652C343.297 139.611 335.347 127.202 331.859 114.62C329.972 107.701 329.4 100.095 327.456 90.8305C400.312 204.805 318.306 354.808 183 354.808Z" fill="#FFF6EB"/>
<path d="M183 114.62C169.427 114.62 156.159 118.645 144.874 126.186C133.589 133.726 124.793 144.444 119.599 156.984C114.405 169.523 113.046 183.321 115.694 196.633C118.342 209.945 124.877 222.173 134.475 231.77C144.072 241.368 156.3 247.904 169.612 250.552C182.924 253.2 196.722 251.841 209.262 246.646C221.801 241.452 232.519 232.657 240.06 221.371C247.6 210.086 251.625 196.818 251.625 183.245C251.625 165.045 244.395 147.59 231.525 134.72C218.656 121.85 201.201 114.62 183 114.62ZM183 240.433C171.689 240.433 160.633 237.079 151.228 230.795C141.824 224.511 134.494 215.58 130.166 205.13C125.837 194.68 124.705 183.182 126.911 172.089C129.118 160.995 134.565 150.805 142.562 142.808C150.56 134.81 160.75 129.363 171.843 127.157C182.937 124.95 194.435 126.082 204.885 130.411C215.334 134.739 224.266 142.069 230.55 151.474C236.834 160.878 240.188 171.935 240.188 183.245C240.188 198.412 234.162 212.958 223.438 223.683C212.713 234.408 198.167 240.433 183 240.433Z" fill="#FFF6EB"/>
<path d="M194.438 80.3077H205.875C207.392 80.3077 208.846 79.7052 209.919 78.6328C210.991 77.5603 211.594 76.1057 211.594 74.589C211.594 73.0723 210.991 71.6177 209.919 70.5452C208.846 69.4727 207.392 68.8702 205.875 68.8702H194.438C192.921 68.8702 191.466 69.4727 190.394 70.5452C189.321 71.6177 188.719 73.0723 188.719 74.589C188.719 76.1057 189.321 77.5603 190.394 78.6328C191.466 79.7052 192.921 80.3077 194.438 80.3077Z" fill="#FFF6EB"/>
<path d="M231.896 108.272C244.477 114.62 244.077 114.62 245.907 114.62C247.187 114.612 248.428 114.175 249.431 113.378C250.433 112.582 251.14 111.472 251.436 110.226C251.733 108.98 251.603 107.671 251.067 106.508C250.531 105.345 249.62 104.395 248.48 103.812L237.043 98.0928C235.71 97.5377 234.216 97.5074 232.862 98.008C231.507 98.5086 230.392 99.503 229.741 100.792C229.089 102.08 228.949 103.568 229.349 104.955C229.749 106.343 230.659 107.528 231.896 108.272Z" fill="#FFF6EB"/>
<path d="M280.219 148.932C281.5 148.925 282.741 148.488 283.743 147.691C284.746 146.894 285.452 145.784 285.749 144.538C286.045 143.293 285.915 141.983 285.379 140.82C284.843 139.657 283.933 138.708 282.793 138.124L271.355 132.405C270.022 131.85 268.529 131.82 267.174 132.321C265.82 132.821 264.705 133.816 264.053 135.104C263.402 136.393 263.262 137.88 263.662 139.268C264.061 140.655 264.971 141.84 266.208 142.585C278.79 148.932 278.389 148.932 280.219 148.932Z" fill="#FFF6EB"/>
<path d="M280.219 188.964H291.656C293.173 188.964 294.628 188.361 295.7 187.289C296.772 186.217 297.375 184.762 297.375 183.245C297.375 181.729 296.772 180.274 295.7 179.201C294.628 178.129 293.173 177.526 291.656 177.526H280.219C278.702 177.526 277.247 178.129 276.175 179.201C275.103 180.274 274.5 181.729 274.5 183.245C274.5 184.762 275.103 186.217 276.175 187.289C277.247 188.361 278.702 188.964 280.219 188.964Z" fill="#FFF6EB"/>
<path d="M320.25 160.37V148.933C320.25 147.416 319.647 145.961 318.575 144.889C317.503 143.816 316.048 143.214 314.531 143.214C313.015 143.214 311.56 143.816 310.487 144.889C309.415 145.961 308.812 147.416 308.812 148.933V160.37C308.812 161.887 309.415 163.342 310.487 164.414C311.56 165.486 313.015 166.089 314.531 166.089C316.048 166.089 317.503 165.486 318.575 164.414C319.647 163.342 320.25 161.887 320.25 160.37Z" fill="#FFF6EB"/>
<path d="M285.938 103.183V91.7452C285.938 90.2285 285.335 88.7739 284.263 87.7015C283.19 86.629 281.735 86.0265 280.219 86.0265C278.702 86.0265 277.247 86.629 276.175 87.7015C275.103 88.7739 274.5 90.2285 274.5 91.7452V103.183C274.5 104.699 275.103 106.154 276.175 107.227C277.247 108.299 278.702 108.901 280.219 108.901C281.735 108.901 283.19 108.299 284.263 107.227C285.335 106.154 285.938 104.699 285.938 103.183Z" fill="#FFF6EB"/>
<path d="M251.625 51.714H240.188C238.671 51.714 237.216 52.3165 236.144 53.389C235.071 54.4614 234.469 55.916 234.469 57.4327C234.469 58.9494 235.071 60.404 236.144 61.4765C237.216 62.549 238.671 63.1515 240.188 63.1515H251.625C253.142 63.1515 254.596 62.549 255.669 61.4765C256.741 60.404 257.344 58.9494 257.344 57.4327C257.344 55.916 256.741 54.4614 255.669 53.389C254.596 52.3165 253.142 51.714 251.625 51.714Z" fill="#FFF6EB"/>
<path d="M108.656 137.495V126.058C108.656 124.541 108.054 123.086 106.981 122.014C105.909 120.941 104.454 120.339 102.938 120.339C101.421 120.339 99.9662 120.941 98.8937 122.014C97.8213 123.086 97.2188 124.541 97.2188 126.058V137.495C97.2188 139.012 97.8213 140.467 98.8937 141.539C99.9662 142.611 101.421 143.214 102.938 143.214C104.454 143.214 105.909 142.611 106.981 141.539C108.054 140.467 108.656 139.012 108.656 137.495Z" fill="#FFF6EB"/>
<path d="M74.3438 126.058V108.901C74.3438 107.385 73.7412 105.93 72.6688 104.858C71.5963 103.785 70.1417 103.183 68.625 103.183C67.1083 103.183 65.6537 103.785 64.5812 104.858C63.5088 105.93 62.9062 107.385 62.9062 108.901V126.058C62.9062 127.574 63.5088 129.029 64.5812 130.102C65.6537 131.174 67.1083 131.776 68.625 131.776C70.1417 131.776 71.5963 131.174 72.6688 130.102C73.7412 129.029 74.3438 127.574 74.3438 126.058Z" fill="#FFF6EB"/>
<path d="M112.203 228.196L95.0465 222.477C94.333 222.24 93.5799 222.147 92.8303 222.201C92.0806 222.256 91.349 222.457 90.6773 222.794C90.0055 223.132 89.4067 223.598 88.9151 224.166C88.4236 224.735 88.0488 225.395 87.8122 226.108C87.5757 226.822 87.4819 227.575 87.5364 228.324C87.5909 229.074 87.7925 229.806 88.1297 230.478C88.4669 231.149 88.9331 231.748 89.5017 232.24C90.0703 232.731 90.7302 233.106 91.4436 233.343L108.6 239.061C109.313 239.298 110.066 239.392 110.816 239.337C111.566 239.283 112.297 239.081 112.969 238.744C113.641 238.407 114.24 237.94 114.731 237.372C115.223 236.803 115.598 236.143 115.834 235.43C116.071 234.716 116.164 233.963 116.11 233.214C116.055 232.464 115.854 231.732 115.517 231.061C115.179 230.389 114.713 229.79 114.145 229.299C113.576 228.807 112.916 228.432 112.203 228.196Z" fill="#FFF6EB"/>
<path d="M148.688 257.589H131.531C130.015 257.589 128.56 258.192 127.487 259.264C126.415 260.337 125.812 261.791 125.812 263.308C125.812 264.825 126.415 266.279 127.487 267.352C128.56 268.424 130.015 269.027 131.531 269.027H148.688C150.204 269.027 151.659 268.424 152.731 267.352C153.804 266.279 154.406 264.825 154.406 263.308C154.406 261.791 153.804 260.337 152.731 259.264C151.659 258.192 150.204 257.589 148.688 257.589Z" fill="#FFF6EB"/>
<path d="M182.371 266.454C181.627 265.217 180.442 264.307 179.054 263.907C177.667 263.507 176.179 263.647 174.891 264.299C173.602 264.95 172.608 266.065 172.107 267.42C171.607 268.774 171.637 270.268 172.192 271.601C177.911 283.038 178.483 286.183 183 286.183C183.975 286.18 184.933 285.928 185.783 285.451C186.633 284.974 187.347 284.287 187.857 283.456C188.367 282.625 188.656 281.678 188.697 280.704C188.738 279.73 188.529 278.762 188.09 277.891L182.371 266.454Z" fill="#FFF6EB"/>
<path d="M238.357 257.876L221.201 263.595C219.76 264.08 218.571 265.118 217.896 266.48C217.22 267.842 217.113 269.417 217.598 270.858C218.084 272.299 219.122 273.488 220.484 274.164C221.846 274.839 223.42 274.946 224.861 274.461L242.017 268.742C243.458 268.257 244.647 267.219 245.323 265.857C245.999 264.495 246.106 262.92 245.62 261.479C245.135 260.038 244.097 258.849 242.735 258.174C241.373 257.498 239.798 257.391 238.357 257.876Z" fill="#FFF6EB"/>
<path d="M285.937 234.714C287.073 234.72 288.185 234.388 289.132 233.76C290.079 233.133 290.817 232.237 291.252 231.188C291.688 230.139 291.801 228.984 291.578 227.87C291.354 226.756 290.804 225.734 289.998 224.935L278.56 213.497C277.483 212.42 276.023 211.815 274.5 211.815C272.977 211.815 271.517 212.42 270.44 213.497C269.363 214.574 268.758 216.034 268.758 217.557C268.758 219.08 269.363 220.541 270.44 221.618C282.907 234.085 282.849 234.714 285.937 234.714Z" fill="#FFF6EB"/>
<path d="M142.97 97.4635L154.407 103.182C155.758 103.803 157.297 103.873 158.698 103.378C160.1 102.883 161.253 101.862 161.915 100.532C162.577 99.2008 162.694 97.6647 162.243 96.2487C161.792 94.8327 160.807 93.6481 159.497 92.9457L148.06 87.227C146.709 86.6066 145.17 86.5364 143.769 87.0312C142.367 87.526 141.214 88.5469 140.552 89.8777C139.89 91.2084 139.773 92.7445 140.224 94.1605C140.675 95.5765 141.66 96.7611 142.97 97.4635Z" fill="#FFF6EB"/>
<path d="M89.1546 187.018L83.4358 175.581C82.7334 174.271 81.5488 173.286 80.1328 172.835C78.7168 172.383 77.1807 172.501 75.8499 173.163C74.5192 173.824 73.4983 174.978 73.0035 176.38C72.5087 177.781 72.5789 179.32 73.1992 180.67L78.918 192.108C79.6204 193.418 80.805 194.403 82.221 194.854C83.637 195.305 85.1731 195.188 86.5039 194.526C87.8346 193.864 88.8555 192.711 89.3503 191.309C89.8451 189.908 89.7749 188.369 89.1546 187.018Z" fill="#FFF6EB"/>
<path d="M183 40.2765V28.839C183 27.3223 182.397 25.8677 181.325 24.7952C180.253 23.7227 178.798 23.1202 177.281 23.1202C175.765 23.1202 174.31 23.7227 173.237 24.7952C172.165 25.8677 171.562 27.3223 171.562 28.839V40.2765C171.562 41.7932 172.165 43.2478 173.237 44.3203C174.31 45.3927 175.765 45.9952 177.281 45.9952C178.798 45.9952 180.253 45.3927 181.325 44.3203C182.397 43.2478 183 41.7932 183 40.2765Z" fill="#FFF6EB"/>
<path d="M124.268 54.2858C136.849 60.5193 136.449 60.5765 138.279 60.5765C139.56 60.5689 140.801 60.1317 141.803 59.335C142.806 58.5383 143.512 57.4281 143.808 56.1824C144.105 54.9366 143.975 53.6274 143.439 52.4644C142.903 51.3013 141.992 50.3519 140.853 49.768L129.415 44.0493C128.058 43.3667 126.485 43.2514 125.042 43.7287C123.6 44.2059 122.406 45.2367 121.723 46.5941C121.041 47.9516 120.926 49.5245 121.403 50.967C121.88 52.4095 122.911 53.6033 124.268 54.2858Z" fill="#FFF6EB"/>
<path d="M102.938 91.7452H114.375C115.892 91.7452 117.346 91.1427 118.419 90.0703C119.491 88.9978 120.094 87.5432 120.094 86.0265C120.094 84.5098 119.491 83.0552 118.419 81.9827C117.346 80.9102 115.892 80.3077 114.375 80.3077H102.938C101.421 80.3077 99.9662 80.9102 98.8937 81.9827C97.8213 83.0552 97.2188 84.5098 97.2188 86.0265C97.2188 87.5432 97.8213 88.9978 98.8937 90.0703C99.9662 91.1427 101.421 91.7452 102.938 91.7452Z" fill="#FFF6EB"/>
</g>
<defs>
<clipPath id="clip0_860_891">
<rect width="366" height="366.303" fill="white"/>
</clipPath>
</defs>
</svg>
