<svg width="33" height="32" viewBox="0 0 33 32" fill="none" xmlns="http://www.w3.org/2000/svg">
<path d="M22.6095 26.5686H7.08706V10.553H16.1418V7.93182H7.08706C5.66418 7.93182 4.5 9.11137 4.5 10.553V26.2803C4.5 27.722 5.66418 28.9015 7.08706 28.9015H22.6095C24.0323 28.9015 25.1965 27.722 25.1965 26.2803V17.1061H22.6095V26.5686Z" fill="#FFFFFF"/>
<path d="M25.1965 4H22.6094V7.93182H18.7288C18.7417 7.94492 18.7288 10.553 18.7288 10.553H22.6094V14.4717C22.6223 14.4848 25.1965 14.4717 25.1965 14.4717V10.553H29.0771V7.93182H25.1965V4ZM9.67407 13.1742H20.0223V15.7955H9.67407V13.1742ZM9.67407 17.1061V19.7273H20.0223V17.1061H16.1417H9.67407ZM9.67407 21.0379H20.0223V23.6591H9.67407V21.0379Z" fill="#FFFFFF"/>
</svg>
