<svg width="32" height="32" viewBox="0 0 32 32" fill="none" xmlns="http://www.w3.org/2000/svg">
<g clip-path="url(#clip0_1076_2260)">
<path d="M3.95016 23.6V22.85H3.20016H0.80016C0.786898 22.85 0.774181 22.8447 0.764805 22.8354C0.755428 22.826 0.75016 22.8133 0.75016 22.8C0.75016 22.7867 0.755428 22.774 0.764805 22.7646C0.774181 22.7553 0.786898 22.75 0.80016 22.75H31.2002C31.2134 22.75 31.2261 22.7553 31.2355 22.7646C31.2449 22.774 31.2502 22.7867 31.2502 22.8C31.2502 22.8133 31.2449 22.826 31.2355 22.8354C31.2261 22.8447 31.2134 22.85 31.2002 22.85H28.8002H28.0502V23.6C28.0502 25.0985 27.4549 26.5356 26.3953 27.5952C25.3357 28.6547 23.8986 29.25 22.4002 29.25H9.60016C8.10169 29.25 6.66459 28.6547 5.60501 27.5952C4.54543 26.5356 3.95016 25.0985 3.95016 23.6Z" fill="#1B1B1A" stroke="#1B1B1A" stroke-width="1.5"/>
<path fill-rule="evenodd" clip-rule="evenodd" d="M14.8042 8L15.5715 8.39719L16.3388 8.79437L16.3371 8.79704L16.3268 8.81925L16.2839 8.91699C16.0549 9.44713 15.8824 10.0016 15.7695 10.5706C15.5672 11.6182 15.6418 12.545 16.1776 13.1003C17.3564 14.3221 17.2819 16.061 17.0555 17.2348C16.9079 17.9825 16.676 18.7096 16.3645 19.4011L16.3474 19.4393L16.3414 19.4509L16.3397 19.4553L16.3388 19.4562L15.5715 19.0599L14.8042 18.6627L14.8059 18.6601L14.8162 18.6378L14.8591 18.5401C15.0881 18.01 15.2606 17.4555 15.3735 16.8865C15.5758 15.8389 15.5012 14.9121 14.9654 14.3568C13.7866 13.135 13.8611 11.3961 14.0875 10.2223C14.2351 9.47462 14.467 8.74753 14.7785 8.05598L14.7956 8.01777L14.8016 8.00622L14.8033 8.00267L14.8042 8ZM8.00135 10.1219L8.71293 10.6195C9.42365 11.1162 9.42451 11.1153 9.42451 11.1153L9.41336 11.1331C9.33812 11.2574 9.26776 11.3849 9.20246 11.5151C9.04037 11.834 8.91107 12.1697 8.81667 12.5165C8.61091 13.3091 8.68464 13.9347 9.22304 14.347C10.6136 15.415 10.5399 17.0118 10.2638 18.07C10.1376 18.5403 9.96378 18.9954 9.74515 19.4278C9.64954 19.6182 9.5457 19.8041 9.43394 19.9849L9.42708 19.9956L9.42536 19.9991L9.42451 20C9.42451 20 9.42365 20.0018 8.71293 19.5042C8.00221 19.0066 8.00135 19.0075 8.00135 19.0075L8.0125 18.9906L8.05879 18.9142C8.11649 18.814 8.17138 18.712 8.2234 18.6085C8.35628 18.3437 8.50889 17.9883 8.60919 17.6062C8.81495 16.8136 8.74122 16.189 8.20282 15.7758C6.81225 14.7077 6.88598 13.1119 7.16204 12.0527C7.30349 11.5089 7.51268 11.0309 7.68072 10.695C7.77641 10.5049 7.88025 10.3193 7.99192 10.1388L7.99792 10.1281L8.0005 10.1237L8.00135 10.1219ZM22.5758 10.1219L23.2874 10.6195C23.9981 11.1162 23.999 11.1153 23.999 11.1153L23.9878 11.1331C23.9126 11.2574 23.8422 11.3849 23.7769 11.5151C23.6148 11.834 23.4855 12.1697 23.3911 12.5165C23.1854 13.3091 23.2591 13.9347 23.7975 14.347C25.1881 15.415 25.1143 17.0118 24.8383 18.07C24.7121 18.5403 24.5382 18.9954 24.3196 19.4278C24.2243 19.6182 24.1207 19.8041 24.0093 19.9849L24.0024 19.9956L23.9998 19.9991L23.999 20C23.999 20 23.9981 20.0018 23.2874 19.5042C22.5767 19.0066 22.5758 19.0075 22.5758 19.0075L22.587 18.9906L22.6333 18.9142C22.691 18.814 22.7458 18.712 22.7979 18.6085C22.9307 18.3437 23.0834 17.9883 23.1837 17.6062C23.3894 16.8136 23.3157 16.189 22.7773 15.7758C21.3867 14.7077 21.4604 13.1119 21.7365 12.0527C21.878 11.5089 22.0871 11.0309 22.2552 10.695C22.3506 10.5049 22.4541 10.3193 22.5655 10.1388L22.5724 10.1281L22.575 10.1237L22.5767 10.1219H22.5758Z" fill="#1B1B1A"/>
</g>
<defs>
<clipPath id="clip0_1076_2260">
<rect width="32" height="32" fill="white"/>
</clipPath>
</defs>
</svg>
