<svg width="32" height="32" viewBox="0 0 32 32" fill="none" xmlns="http://www.w3.org/2000/svg">
<path d="M8 27.2727V4H22.5114V7.02273H11.5114V13.3864H16.7159C18.4432 13.3864 19.9091 13.6667 21.1136 14.2273C22.3258 14.7879 23.25 15.5795 23.8864 16.6023C24.5303 17.625 24.8523 18.8295 24.8523 20.2159C24.8523 21.6023 24.5303 22.8258 23.8864 23.8864C23.25 24.947 22.3258 25.7765 21.1136 26.375C19.9091 26.9735 18.4432 27.2727 16.7159 27.2727H8ZM11.5114 24.3182H16.7159C17.7159 24.3182 18.5606 24.1212 19.25 23.7273C19.947 23.3333 20.4735 22.822 20.8295 22.1932C21.1932 21.5644 21.375 20.8902 21.375 20.1705C21.375 19.125 20.9735 18.2273 20.1705 17.4773C19.3674 16.7197 18.2159 16.3409 16.7159 16.3409H11.5114V24.3182Z" fill="black"/>
</svg>
