<svg width="16" height="17" viewBox="0 0 16 17" fill="none" xmlns="http://www.w3.org/2000/svg">
<path d="M8 2.4C8.27578 2.4 8.54885 2.45432 8.80364 2.55985C9.05842 2.66539 9.28992 2.82007 9.48492 3.01508C9.67993 3.21008 9.83461 3.44158 9.94015 3.69636C10.0457 3.95115 10.1 4.22422 10.1 4.5C10.1 4.77578 10.0457 5.04885 9.94015 5.30364C9.83461 5.55842 9.67993 5.78992 9.48492 5.98492C9.28992 6.17993 9.05842 6.33461 8.80364 6.44015C8.54885 6.54568 8.27578 6.6 8 6.6C7.44305 6.6 6.9089 6.37875 6.51508 5.98492C6.12125 5.5911 5.9 5.05695 5.9 4.5C5.9 3.94305 6.12125 3.4089 6.51508 3.01508C6.9089 2.62125 7.44305 2.4 8 2.4ZM8 11.4C10.97 11.4 14.1 12.86 14.1 13.5V14.6H1.9V13.5C1.9 12.86 5.03 11.4 8 11.4ZM8 0.5C5.79 0.5 4 2.29 4 4.5C4 6.71 5.79 8.5 8 8.5C10.21 8.5 12 6.71 12 4.5C12 2.29 10.21 0.5 8 0.5ZM8 9.5C5.33 9.5 0 10.84 0 13.5V16.5H16V13.5C16 10.84 10.67 9.5 8 9.5Z" fill="black"/>
</svg>
