<svg width="15" height="16" viewBox="0 0 15 16" fill="none" xmlns="http://www.w3.org/2000/svg">
<path d="M10.556 14.6216L10.9397 15.0505L10.5355 14.6401C10.2668 14.9006 10.0387 14.9714 9.83135 14.9814C9.58907 14.993 9.286 14.9238 8.89446 14.7528L8.89449 14.7527L8.88292 14.7478C7.67049 14.2361 6.50278 14.2147 5.22929 14.7463L5.22926 14.7462L5.21901 14.7506C4.65489 14.9935 4.36378 15.0159 4.19876 14.993C4.05745 14.9734 3.88336 14.9041 3.5918 14.6403C1.62102 12.597 0.830516 10.0725 1.03004 8.11248C1.1296 7.13435 1.46905 6.33807 1.97797 5.78569C2.46567 5.25634 3.16106 4.89227 4.11958 4.8323C4.54603 4.86164 4.92724 4.98018 5.33326 5.12865C5.38305 5.14686 5.43719 5.16732 5.49493 5.18915C5.84526 5.32158 6.3285 5.50426 6.78303 5.53878L6.92174 5.54931L7.05807 5.52159C7.50879 5.42991 7.98243 5.26563 8.37364 5.12993C8.50189 5.08545 8.62128 5.04404 8.72811 5.00926C9.21724 4.85003 9.59656 4.7673 9.95674 4.79227C11.0514 4.88019 11.7657 5.29359 12.2322 5.96527L12.2467 5.98619L12.2623 6.00634C12.893 6.82254 13.0784 7.89899 13.0264 8.97618C12.9749 10.0455 12.6942 10.9849 12.5454 11.3766C12.0562 12.664 11.4681 13.8059 10.556 14.6216ZM8.14299 2.25505C8.2996 2.00495 8.49861 1.78091 8.72869 1.59327C8.60805 1.78053 8.46302 1.9551 8.29942 2.11357C8.24812 2.16326 8.19585 2.21044 8.14299 2.25505Z" stroke="black" stroke-width="2"/>
</svg>
