<svg width="148" height="169" viewBox="0 0 148 169" fill="none" xmlns="http://www.w3.org/2000/svg">
<path d="M74.98 86.2728C76.5012 74.7052 77.4348 62.9171 77.1226 51.2423C76.9634 45.5512 76.4881 39.8452 75.83 34.1932C75.2206 28.9496 74.737 23.3221 72.8721 18.3435C70.0092 10.7129 60.4776 3.76794 52.2893 4.32438C44.101 4.88083 38.5382 12.0717 34.9024 18.6528C33.7787 20.6847 36.6945 22.8724 37.8534 20.7953C40.8624 15.4128 45.2104 8.9127 51.8931 7.97812C55.9785 7.40579 60.0152 9.27156 63.0429 11.9047C66.0706 14.5379 67.1413 17.0204 68.2112 20.8465C70.8626 30.4888 71.558 40.8418 72.2543 50.7795C73.0876 62.5518 73.456 74.2141 72.7352 86.0124C72.7035 86.3136 72.7928 86.6151 72.9834 86.8505C73.174 87.0859 73.4503 87.2359 73.7516 87.2676C74.0528 87.2992 74.3543 87.2099 74.5896 87.0193C74.825 86.8287 74.975 86.5524 75.0067 86.2512L74.98 86.2728Z" fill="#FFAC4B"/>
<path d="M15.2947 101.934C18.8685 104.42 23.1325 105.723 27.4859 105.658C28.9386 105.609 28.7036 103.428 27.4136 103.207C25.3904 102.872 23.412 102.75 21.4129 102.186C19.6336 101.681 17.9511 100.893 16.2178 100.241C16.0004 100.163 15.7623 100.165 15.5462 100.246C15.3301 100.328 15.1501 100.483 15.0384 100.686C14.9267 100.888 14.8907 101.123 14.9368 101.35C14.9829 101.576 15.1081 101.778 15.2899 101.921L15.2947 101.934Z" fill="#FFAC4B"/>
<path d="M61.1997 6.2501C54.9638 3.45686 47.9241 5.05633 42.472 8.86888C35.8802 13.4717 32.5069 21.2165 30.2292 28.6488C28.9233 32.9982 27.8476 37.4134 27.0066 41.8761C26.097 46.5203 26.1235 51.208 25.5328 55.898C24.3935 65.4595 22.7461 74.9737 21.4255 84.5162C21.1066 86.8526 24.7206 87.2202 25.0503 84.8972C26.2575 76.7232 27.3809 68.5343 28.5223 60.3473C29.6378 52.408 31.5999 44.4906 33.3869 36.6707C35.0188 29.5126 37.0405 21.9006 41.3373 15.8289C45.6342 9.75707 52.9327 5.75378 60.3107 8.37387C60.5931 8.48455 60.9079 8.47852 61.1858 8.3571C61.4638 8.23568 61.6821 8.00882 61.7928 7.72643C61.9034 7.44404 61.8974 7.12925 61.776 6.85131C61.6546 6.57337 61.4277 6.35506 61.1453 6.24438L61.1997 6.2501Z" fill="#FFAC4B"/>
<path d="M73.7249 87.2894C74.0261 87.321 74.3276 87.2317 74.563 87.0411C74.7984 86.8505 74.9484 86.5742 74.98 86.273C75.0117 85.9717 74.9224 85.6703 74.7318 85.4349C74.5412 85.1995 74.2649 85.0495 73.9636 85.0178C73.6624 84.9861 73.361 85.0755 73.1256 85.2661C72.8902 85.4567 72.7402 85.733 72.7085 86.0342C72.6768 86.3354 72.7661 86.6369 72.9567 86.8723C73.1474 87.1077 73.4237 87.2577 73.7249 87.2894Z" fill="#FFAC4B"/>
<path d="M23.5441 79.8222L75.4367 80.9396C76.8685 80.974 78.4771 81.0698 79.468 82.1024C80.0464 82.7927 80.4234 83.6291 80.5577 84.5196C81.6102 89.2663 80.8956 94.2059 80.3387 99.0399C78.7865 112.469 78.4569 126.011 79.354 139.5C79.7211 144.956 80.0995 151.061 76.5527 155.227C73.4242 158.899 68.2 159.846 63.3871 160.251C45.8188 161.66 28.2171 158.448 11.0174 154.606C9.14332 154.189 7.11626 153.658 5.98408 152.11C4.6754 150.323 5.04448 147.858 5.47433 145.686L17.1049 86.982C17.3284 85.3718 17.8292 83.8125 18.5849 82.3733C19.4213 80.9831 20.8716 79.8528 22.5139 79.8605" fill="#FFAC4B"/>
<path d="M23.4288 80.9156L51.1518 81.8015L63.2117 82.1834L70.4434 82.4181C72.3731 82.4805 75.2454 82.0006 77.0147 82.7179C81.026 84.3611 79.0726 93.5317 78.7125 96.6089C78.2061 100.905 77.7479 105.205 77.4469 109.523C76.8421 118.223 76.7405 126.951 77.1426 135.664C77.4897 143.17 79.4235 153.421 70.5673 156.73C67.268 157.959 63.5747 158.114 60.0946 158.274C55.4198 158.472 50.7372 158.388 46.0726 158.021C37.4709 157.302 28.926 156.016 20.4935 154.172C18.1802 153.691 15.8829 153.175 13.5862 152.652C12.1251 152.316 9.85869 152.145 8.67224 151.171C7.28894 150.036 7.55545 148.372 7.76346 146.8C8.11471 144.155 8.65927 141.531 9.11259 138.903C10.7629 129.304 12.6609 119.73 14.5452 110.113C15.511 105.224 16.4593 100.327 17.4433 95.4405C17.9186 93.088 18.3955 90.7397 18.8739 88.3956C19.3772 85.932 19.7162 82.2417 22.8417 81.9105C25.4604 81.6361 24.7949 77.5653 22.1676 77.8634C18.4946 78.2897 16.4474 81.2629 15.5926 84.6302C14.3327 89.5858 13.5984 94.7127 12.6018 99.7204C10.5347 110.088 8.6512 120.512 6.3578 130.826C5.20632 135.97 3.87838 141.108 2.9002 146.289C2.21716 149.882 2.69179 153.444 5.99984 155.502C9.55497 157.708 14.8061 158.015 18.8284 158.798C23.8374 159.783 28.8613 160.684 33.9195 161.374C44.0594 162.764 54.472 163.418 64.6624 162.351C72.6411 161.522 79.7705 158.082 81.2807 149.524C82.0273 145.327 81.447 141.027 81.204 136.83C80.874 131.253 80.7623 125.671 80.8691 120.083C80.9688 114.718 81.263 109.362 81.7518 104.014C82.2117 98.9985 83.0876 93.9781 82.8671 88.928C82.7027 85.0871 82.2069 80.4478 77.7827 79.5369C75.1524 78.9917 72.2489 79.3035 69.5695 79.2845L60.5098 79.1813L23.6609 78.7655C22.2635 78.753 22.0066 80.9066 23.431 80.9524L23.4288 80.9156Z" fill="#FFAC4B"/>
<path d="M7.4641 118.384C5.57482 123.927 4.1043 129.604 3.06495 135.367C2.18593 140.301 0.944239 145.955 1.50941 150.98C2.06087 155.845 5.644 158.134 10.0873 159.211C15.7923 160.532 21.5639 161.547 27.3775 162.25C38.5892 163.728 50.9689 165.426 62.2059 163.352C70.0173 161.907 84.7412 159.374 83.316 148.468C83.0528 146.498 79.7288 146.509 79.7317 148.574C79.7411 153.656 74.7046 155.723 70.5837 156.982C66.1681 158.314 61.7659 159.518 57.1593 159.877C47.6874 160.616 37.7835 159.423 28.3965 158.192C23.6656 157.564 18.9569 156.803 14.2705 155.907C9.54041 155 5.29426 154.139 4.95347 148.49C4.3971 138.732 6.57349 128.369 9.26863 119.056C9.60707 117.87 7.86804 117.156 7.46791 118.348L7.4641 118.384Z" fill="#FF8A00"/>
<path d="M36.9089 111.431C37.5074 112.477 39.1436 112.368 40.0777 111.618C41.0117 110.867 41.5005 109.703 42.2133 108.733C42.6812 108.096 43.2471 107.537 43.8899 107.077C44.1852 106.834 44.5482 106.689 44.9293 106.661C45.6183 106.672 46.0816 107.319 46.428 107.918C47.3289 109.52 48.0133 111.236 48.4634 113.018C48.5331 113.216 48.5362 113.43 48.4724 113.63C48.3341 113.83 48.1281 113.973 47.8925 114.033L45.0972 115.059C47.3322 116.716 49.7818 118.062 52.3788 119.061C52.6858 119.206 53.033 119.243 53.3635 119.165C53.6498 119.027 53.8866 118.805 54.0413 118.527C55.4497 116.47 56.7184 114.32 57.8389 112.092C57.2455 112 56.6424 111.99 56.0463 112.062C56.0208 109.806 54.9804 107.674 53.9617 105.686C53.0005 103.789 51.9624 101.811 50.2185 100.62C49.3447 100.074 48.3682 99.7137 47.3495 99.5604C46.3308 99.4071 45.2914 99.4644 44.2957 99.7288C42.3012 100.275 40.4783 101.319 38.9987 102.764C37.0086 104.613 35.4799 106.895 33.9664 109.149C33.7437 109.421 33.6086 109.754 33.579 110.104C33.6106 111.023 34.8783 111.224 35.7915 111.137" fill="white"/>
<path d="M36.1744 112.026C37.6061 113.862 39.9669 113.542 41.5612 112.03C42.0629 111.558 44.1021 108.022 44.924 108.279C45.4073 108.446 46.1562 110.62 46.264 111.046C46.7791 113.061 46.1642 113.1 44.4934 113.713C43.3949 114.11 43.3306 115.71 44.2166 116.347C46.3287 117.87 50.8236 121.421 53.646 120.777C54.7474 120.526 55.3304 119.512 55.9169 118.639C57.1702 116.743 58.3112 114.774 59.334 112.744C59.8095 111.822 58.9413 110.668 58.0272 110.591C57.2899 110.532 56.5492 110.527 55.8113 110.578L57.635 111.881C57.2077 104.323 50.7565 95.326 42.3916 98.7835C39.1995 100.097 26.7028 112.472 35.6425 112.611C37.4714 112.645 37.7241 109.776 35.9372 109.808C35.533 109.644 35.2303 109.734 35.0421 110.013C35.4198 109.442 35.7733 108.869 36.1811 108.301C36.7578 107.463 37.3411 106.621 37.9858 105.833C39.7441 103.691 42.194 101.768 44.9837 101.261C50.5885 100.238 54.0783 107.714 54.5099 112.383C54.5876 112.793 54.8206 113.158 55.1603 113.401C55.5 113.643 55.9203 113.746 56.3336 113.687L57.6982 113.72L56.3914 111.567C55.8914 112.547 53.7386 117.396 52.9734 117.646C52.6119 117.773 50.4438 116.549 50.1188 116.387C48.6863 115.66 47.3121 114.823 46.0085 113.884L45.7317 116.518C47.5115 115.856 50.0042 115.501 49.9759 113.214C49.9568 111.129 48.563 108.002 47.1952 106.429C43.0648 101.676 39.6291 112.572 37.4397 110.681C36.609 109.983 35.5088 111.211 36.149 112.035L36.1744 112.026Z" fill="white"/>
<path d="M56.8509 121.956C55.6751 122.217 55.2995 123.815 55.7436 124.937C56.1876 126.058 57.1524 126.874 57.8807 127.849C58.3479 128.48 58.7112 129.182 58.957 129.929C59.1055 130.281 59.1392 130.672 59.0535 131.044C58.8447 131.694 58.0836 131.962 57.4162 132.094C55.6181 132.484 53.7764 132.635 51.9388 132.544C51.727 132.553 51.5186 132.49 51.3467 132.366C51.1932 132.178 51.1159 131.938 51.1301 131.696L50.9662 128.722C48.7153 130.381 46.7011 132.34 44.9793 134.543C44.7413 134.79 44.5954 135.111 44.5661 135.453C44.6133 135.766 44.758 136.057 44.9796 136.284C46.5344 138.233 48.2206 140.073 50.0261 141.792C50.2833 141.252 50.4667 140.68 50.5715 140.091C52.7407 140.722 55.0595 140.336 57.3045 139.955C59.41 139.566 61.6061 139.186 63.2564 137.838C64.0325 137.16 64.6617 136.331 65.1051 135.4C65.5485 134.47 65.7967 133.459 65.8345 132.429C65.8954 130.363 65.4297 128.315 64.481 126.478C63.1958 124.083 61.64 121.843 59.8441 119.803C59.6508 119.509 59.372 119.282 59.0453 119.151C58.1604 118.911 57.593 120.067 57.4071 120.964" fill="white"/>
<path d="M56.4597 121.091C54.2897 121.919 53.9445 124.332 54.9375 126.275C55.4451 127.257 57.9951 129.437 57.1604 130.638C56.8797 131.042 54.4756 131.077 54.0661 131.021C52.2896 130.78 52.5165 130.248 52.4275 128.479C52.3612 127.251 50.7605 126.905 49.9486 127.541C47.843 129.152 43.6562 132.083 43.0716 134.856C42.487 137.629 47.0458 141.095 48.7497 142.783C49.5743 143.596 50.9702 143.566 51.4501 142.37C51.71 141.828 51.8957 141.254 52.0021 140.663L50.4195 141.657C57.8781 143.394 68.4668 139.816 67.3274 130.607C66.8063 126.442 63.8314 122.434 61.184 119.321C59.2708 117.068 57.0194 117.509 56.078 120.422C55.5168 122.158 58.2317 123.177 58.7004 121.448C59.1135 119.959 59.2879 121.205 60.0747 122.204C60.7054 123.003 61.3427 123.797 61.9066 124.65C63.4344 126.967 64.5525 129.87 64.1962 132.679C63.4817 138.431 55.3348 139.407 50.7576 138.498C50.4132 138.46 50.066 138.537 49.7699 138.717C49.4738 138.897 49.2453 139.17 49.1199 139.493C49.0159 140.084 48.8323 140.658 48.574 141.2L51.275 140.782C50.2487 139.794 49.2492 138.785 48.2917 137.726C47.898 137.287 46.2326 135.872 46.2523 135.453C46.2719 135.034 48.5978 132.78 48.7446 132.661C49.7451 131.691 50.8033 130.782 51.9136 129.94L49.4347 129.001C49.5466 130.901 49.1715 133.365 51.3547 133.98C53.3537 134.544 56.7994 134.131 58.674 133.265C64.2976 130.667 54.9483 124.255 57.4332 122.696C58.3816 122.099 57.3947 120.737 56.4463 121.102L56.4597 121.091Z" fill="white"/>
<path d="M39.1141 133.976C39.6086 132.873 38.562 131.615 37.3976 131.303C36.2332 130.992 35.0012 131.265 33.7936 131.248C33.0078 131.239 32.2282 131.108 31.4829 130.859C31.1134 130.765 30.7827 130.557 30.5375 130.265C30.1384 129.704 30.384 128.935 30.6695 128.312C31.4364 126.64 32.4222 125.078 33.6009 123.666C33.723 123.483 33.9059 123.349 34.1173 123.287C34.3581 123.277 34.5938 123.359 34.7774 123.515L37.2472 125.18C37.2695 122.398 36.9157 119.626 36.1954 116.939C36.1891 116.772 36.1458 116.609 36.0687 116.46C35.9916 116.312 35.8826 116.183 35.7495 116.082C35.6164 115.981 35.4625 115.911 35.299 115.876C35.1355 115.842 34.9664 115.844 34.8038 115.883C32.3215 115.961 29.8473 116.205 27.3974 116.613C27.6822 117.149 28.0418 117.641 28.4654 118.075C26.6554 119.43 25.5636 121.508 24.5397 123.52C23.5709 125.416 22.5725 127.418 22.6844 129.549C22.7578 130.578 23.0415 131.581 23.5179 132.496C23.9944 133.41 24.6534 134.218 25.4544 134.867C27.0701 136.156 28.9879 137.012 31.0264 137.353C33.7126 137.768 36.4379 137.872 39.148 137.663C39.4985 137.686 39.8475 137.599 40.1454 137.413C40.8674 136.878 40.2883 135.706 39.677 135.012" fill="white"/>
<path d="M39.9943 134.319C40.1293 133.889 40.1768 133.437 40.1339 132.989C40.091 132.54 39.9586 132.105 39.7445 131.709C39.5304 131.313 39.239 130.964 38.8875 130.682C38.536 130.401 38.1316 130.193 37.6983 130.071C36.185 129.533 34.6344 130.164 33.1622 129.759C31.5059 129.304 31.8543 129.01 32.9005 127.251C33.4392 126.194 34.175 125.249 35.0682 124.468L33.5528 124.706C34.5474 125.158 35.4841 125.728 36.3429 126.404C37.2104 126.984 38.7696 126.561 38.7709 125.327C38.7578 122.547 39.0378 117.5 37.0797 115.267C35.1217 113.033 29.5373 114.676 27.1098 115.05C26.1915 115.185 25.3889 116.371 25.9248 117.258C26.295 117.891 26.7111 118.497 27.1699 119.069L27.4067 116.815C21.5008 121.692 17.8481 132.211 25.697 136.976C29.373 139.194 34.5545 139.293 38.707 138.954C41.7867 138.709 42.4401 136.561 40.6912 134.08C39.6245 132.606 37.3947 134.412 38.5074 135.854C39.2322 136.804 36.4532 136.396 35.7079 136.397C34.5448 136.42 33.3819 136.349 32.2303 136.184C29.733 135.769 26.9396 134.626 25.3803 132.551C22.4882 128.686 26.261 122.021 29.4029 119.267C29.724 118.999 29.9281 118.616 29.9718 118.2C30.0156 117.784 29.8956 117.367 29.6372 117.038L28.8081 115.918L27.6292 118.128C29.2812 117.868 33.1401 116.777 34.4563 117.795C35.8743 118.89 35.703 123.368 35.7299 124.971L38.158 123.895C36.7194 122.937 34.9564 121.115 33.1581 122.068C31.3599 123.021 29.5653 126.498 29.0479 128.398C27.3513 134.602 38.4027 131.213 38.1815 133.841C38.0748 134.856 39.6971 135.344 39.9679 134.279L39.9943 134.319Z" fill="white"/>
<path d="M121.864 101.96C119.839 94.1323 117.378 86.3158 114.147 78.8956C112.568 75.2802 110.781 71.7374 108.891 68.2767C107.138 65.0658 105.366 61.5755 102.876 58.8608C99.0555 54.7012 91.1284 52.7133 86.0116 55.1964C80.8949 57.6796 79.1874 63.744 78.5598 68.9163C78.3653 70.5135 80.8066 71.1623 81.0121 69.5269C81.5481 65.2873 82.6544 59.9822 86.7056 57.6469C89.1819 56.2186 92.26 56.3695 94.8889 57.2754C97.5178 58.1813 98.8501 59.4984 100.531 61.679C104.737 67.1861 107.872 73.6576 110.899 79.862C114.491 87.2096 117.755 94.6073 120.354 102.375C120.412 102.577 120.548 102.747 120.731 102.849C120.915 102.951 121.131 102.975 121.333 102.918C121.535 102.86 121.706 102.724 121.807 102.541C121.909 102.357 121.934 102.141 121.876 101.939L121.864 101.96Z" fill="#FFAC4B"/>
<path d="M87.5813 127.516C90.5231 128.186 93.601 127.916 96.3812 126.744C97.302 126.336 96.5848 124.996 95.6986 125.189C94.3117 125.499 93.0088 125.934 91.5778 126.09C90.3035 126.228 89.0181 126.158 87.735 126.189C87.5751 126.195 87.4226 126.258 87.3049 126.367C87.1872 126.475 87.1119 126.622 87.0927 126.781C87.0734 126.94 87.1114 127.1 87.1997 127.234C87.2881 127.367 87.4211 127.465 87.5749 127.509L87.5813 127.516Z" fill="#FFAC4B"/>
<path d="M92.2372 54.1206C87.5054 53.9447 83.3974 56.7999 80.8841 60.6648C77.8436 65.3335 77.6867 71.1853 78.1526 76.552C78.4426 79.6856 78.8976 82.8017 79.5157 85.8874C80.1369 89.1075 81.3709 92.1126 82.2088 95.2793C83.9589 101.719 85.3703 108.259 86.9989 114.733C87.4006 116.317 89.8181 115.615 89.4268 114.037C88.0806 108.472 86.6766 102.919 85.2847 97.3621C83.9404 91.9714 83.1458 86.3749 82.2639 80.8866C81.4543 75.8637 80.7772 70.448 81.9618 65.4313C83.1465 60.4146 86.7966 55.9478 92.2173 55.7159C92.4275 55.7138 92.6282 55.6282 92.7752 55.478C92.9223 55.3278 93.0037 55.1254 93.0015 54.9152C92.9993 54.705 92.9137 54.5044 92.7635 54.3573C92.6134 54.2102 92.4109 54.1289 92.2008 54.131L92.2372 54.1206Z" fill="#FFAC4B"/>
<path d="M121.322 102.939C121.524 102.881 121.694 102.745 121.796 102.562C121.898 102.378 121.922 102.162 121.865 101.96C121.807 101.758 121.671 101.588 121.488 101.486C121.304 101.384 121.087 101.36 120.886 101.417C120.684 101.475 120.513 101.611 120.412 101.794C120.31 101.978 120.285 102.194 120.343 102.396C120.401 102.598 120.537 102.769 120.72 102.87C120.904 102.972 121.12 102.997 121.322 102.939Z" fill="#FFAC4B"/>
<path d="M87.1415 111.167L120.774 98.4144C121.703 98.0648 122.761 97.7088 123.666 98.115C124.217 98.4084 124.676 98.8479 124.993 99.3853C126.902 102.162 127.725 105.521 128.622 108.772C131.111 117.803 134.415 126.59 138.493 135.024C140.145 138.434 141.973 142.259 140.775 145.856C139.718 149.027 136.608 150.992 133.62 152.501C122.698 157.967 110.555 160.473 98.5063 162.469C97.194 162.688 95.7538 162.873 94.6244 162.172C93.3197 161.364 92.9168 159.684 92.6292 158.177L84.8629 117.439C84.5885 116.347 84.5054 115.215 84.6174 114.094C84.7939 112.984 85.4323 111.881 86.4895 111.46" fill="#FFAC4B"/>
<path d="M87.3516 111.9L105.394 105.272L113.242 102.387L117.949 100.66C119.206 100.2 120.926 99.1456 122.249 99.1472C125.253 99.1617 126.379 105.561 126.946 107.632C127.736 110.523 128.558 113.406 129.486 116.258C131.356 122.005 133.556 127.639 136.076 133.133C138.248 137.866 142.151 143.95 137.32 148.375C135.519 150.021 133.186 151.08 130.992 152.086C128.04 153.427 125.009 154.588 121.917 155.564C116.203 157.334 110.379 158.726 104.483 159.731C102.871 160.022 101.261 160.287 99.65 160.547C98.6238 160.71 97.1232 161.189 96.1081 160.871C94.9247 160.501 94.664 159.363 94.3895 158.298C93.9287 156.508 93.5973 154.681 93.2064 152.875C91.7748 146.278 90.5091 139.634 89.2231 132.966C88.5746 129.574 87.9128 126.182 87.2764 122.786C86.971 121.151 86.6678 119.519 86.3668 117.888C86.0506 116.175 85.3104 113.716 87.2326 112.691C88.8439 111.835 87.3596 109.393 85.7489 110.266C83.4996 111.493 82.9561 113.935 83.281 116.321C83.7579 119.832 84.617 123.317 85.2766 126.793C86.64 133.991 88.1358 141.178 89.3396 148.4C89.9351 152.004 90.4157 155.65 91.132 159.232C91.6259 161.718 92.8556 163.884 95.5153 164.347C98.3722 164.842 101.826 163.676 104.614 163.135C108.088 162.468 111.549 161.742 114.979 160.873C121.854 159.133 128.715 156.851 134.985 153.52C139.897 150.916 143.584 146.855 142.333 140.964C141.723 138.074 140.234 135.461 138.988 132.828C137.329 129.33 135.808 125.772 134.426 122.154C133.097 118.682 131.896 115.164 130.821 111.6C129.815 108.259 129.075 104.806 127.622 101.618C126.519 99.1928 124.996 96.3407 121.917 96.904C120.086 97.2365 118.301 98.1905 116.574 98.8739L110.727 101.159L86.9425 110.458C86.0414 110.813 86.4354 112.263 87.3626 111.923L87.3516 111.9Z" fill="#FFAC4B"/>
<path d="M86.8206 140.119C87.0455 144.171 87.5743 148.2 88.4025 152.172C89.1187 155.571 89.7886 159.526 91.4563 162.608C93.0735 165.591 95.9698 166.131 99.1046 165.67C103.113 165.038 107.085 164.191 111.003 163.134C118.59 161.173 126.985 159.051 133.667 154.801C138.31 151.844 147.113 146.395 143.367 139.757C142.686 138.56 140.553 139.43 141.091 140.756C142.416 144.019 139.717 146.655 137.396 148.533C134.905 150.535 132.389 152.452 129.522 153.878C123.628 156.812 116.955 158.616 110.604 160.262C107.401 161.087 104.178 161.82 100.934 162.461C97.66 163.107 94.7081 163.655 93.0226 160.114C90.132 153.989 88.8403 146.765 88.1545 140.082C88.0641 139.232 86.7613 139.225 86.8136 140.095L86.8206 140.119Z" fill="#FF8A00"/>
<path d="M103.934 128.008C104.59 128.524 105.613 128.03 106.018 127.305C106.424 126.58 106.436 125.705 106.642 124.897C106.777 124.366 106.996 123.86 107.289 123.398C107.416 123.165 107.611 122.978 107.849 122.861C108.295 122.689 108.76 122.985 109.138 123.279C110.133 124.075 111.018 124.999 111.77 126.028C111.866 126.137 111.924 126.274 111.935 126.419C111.898 126.583 111.802 126.728 111.667 126.828L110.137 128.213C112.003 128.697 113.927 128.927 115.854 128.894C116.089 128.908 116.322 128.841 116.514 128.705C116.662 128.543 116.757 128.338 116.784 128.12C117.155 126.432 117.412 124.721 117.553 122.999C117.148 123.094 116.758 123.244 116.394 123.445C115.792 122.002 114.57 120.903 113.399 119.889C112.289 118.92 111.109 117.919 109.679 117.606C108.976 117.482 108.255 117.504 107.561 117.67C106.866 117.836 106.213 118.143 105.642 118.571C104.502 119.439 103.602 120.584 103.027 121.896C102.228 123.601 101.838 125.464 101.451 127.305C101.378 127.538 101.378 127.787 101.45 128.019C101.709 128.602 102.576 128.402 103.14 128.108" fill="white"/>
<path d="M103.616 128.581C105.013 129.389 106.447 128.57 107.079 127.185C107.278 126.751 107.671 123.95 108.266 123.902C108.619 123.884 109.665 125.086 109.845 125.332C110.699 126.493 110.314 126.678 109.399 127.505C108.797 128.045 109.171 129.09 109.905 129.269C111.658 129.699 115.468 130.814 117.114 129.668C117.756 129.221 117.868 128.418 118.018 127.705C118.331 126.161 118.553 124.6 118.683 123.03C118.75 122.314 117.892 121.798 117.285 121.986C116.796 122.139 116.319 122.329 115.858 122.552L117.368 122.916C115.131 118.171 108.65 114.065 104.173 118.458C102.463 120.131 97.6464 131.326 103.427 129.095C104.61 128.642 104.028 126.733 102.888 127.217C102.586 127.216 102.415 127.353 102.366 127.581C102.461 127.116 102.539 126.656 102.654 126.185C102.807 125.498 102.963 124.805 103.173 124.132C103.746 122.299 104.821 120.427 106.482 119.377C109.818 117.265 114.001 121.162 115.49 124.05C115.647 124.294 115.891 124.467 116.172 124.535C116.453 124.603 116.75 124.56 117 124.414L117.886 124.082L116.487 123.038C116.42 123.797 116.296 127.472 115.869 127.831C115.67 128.006 113.959 127.783 113.708 127.763C112.599 127.667 111.499 127.487 110.417 127.222L110.923 128.986C111.895 128.099 113.405 127.223 112.793 125.761C112.239 124.427 110.532 122.779 109.244 122.123C105.357 120.142 105.978 128.035 104.08 127.388C103.365 127.155 102.977 128.23 103.602 128.593L103.616 128.581Z" fill="white"/>
<path d="M119.48 129.593C118.792 130.066 118.965 131.19 119.542 131.795C120.118 132.401 120.95 132.675 121.671 133.112C122.135 133.396 122.551 133.753 122.902 134.169C123.089 134.357 123.212 134.599 123.254 134.861C123.289 135.332 122.869 135.702 122.474 135.96C121.42 136.677 120.276 137.253 119.072 137.671C118.938 137.732 118.788 137.746 118.645 137.71C118.498 137.629 118.386 137.496 118.332 137.336L117.455 135.468C116.439 137.118 115.654 138.9 115.119 140.762C115.031 140.983 115.02 141.227 115.09 141.454C115.202 141.643 115.37 141.792 115.571 141.881C117.076 142.729 118.638 143.474 120.244 144.11C120.269 143.696 120.238 143.281 120.153 142.875C121.71 142.717 123.1 141.868 124.444 141.04C125.695 140.243 127.008 139.429 127.718 138.135C128.041 137.498 128.23 136.801 128.273 136.089C128.316 135.376 128.213 134.661 127.97 133.99C127.473 132.646 126.642 131.452 125.556 130.518C124.108 129.312 122.527 128.277 120.844 127.433C120.643 127.294 120.405 127.22 120.161 127.221C119.531 127.297 119.466 128.187 119.579 128.811" fill="white"/>
<path d="M119.004 129.139C117.825 130.234 118.229 131.874 119.372 132.865C119.953 133.364 122.157 134.103 121.932 135.091C121.857 135.424 120.321 136.07 120.044 136.141C118.84 136.447 118.847 136.046 118.331 134.933C117.97 134.16 116.851 134.354 116.495 134.973C115.56 136.555 113.631 139.525 113.975 141.459C114.319 143.392 118.148 144.435 119.681 145.078C120.422 145.386 121.311 145.004 121.309 144.112C121.335 143.696 121.306 143.279 121.221 142.871L120.462 143.921C125.705 143.101 131.58 138.053 128.457 132.432C127.041 129.891 124.089 128.088 121.58 126.775C119.766 125.824 118.434 126.692 118.585 128.808C118.675 130.069 120.684 130.019 120.536 128.787C120.415 127.722 120.851 128.478 121.616 128.915C122.228 129.265 122.844 129.61 123.428 130.012C125.011 131.104 126.483 132.678 126.983 134.576C128.017 138.457 123.036 141.199 119.859 141.803C119.628 141.869 119.425 142.008 119.281 142.201C119.138 142.393 119.062 142.628 119.065 142.868C119.152 143.275 119.183 143.691 119.157 144.107L120.784 143.137C119.869 142.769 118.964 142.38 118.074 141.947C117.707 141.768 116.27 141.291 116.174 141.017C116.078 140.742 116.987 138.69 117.05 138.576C117.441 137.693 117.885 136.834 118.38 136.005L116.544 136.045C117.109 137.236 117.507 138.917 119.07 138.745C120.501 138.589 122.607 137.429 123.587 136.386C126.526 133.257 118.854 131.564 120.046 129.917C120.5 129.288 119.513 128.669 118.998 129.149L119.004 129.139Z" fill="white"/>
<path d="M111.203 141.92C111.235 141.084 110.236 140.547 109.407 140.649C108.578 140.751 107.857 141.246 107.077 141.549C106.57 141.747 106.035 141.865 105.491 141.899C105.229 141.934 104.963 141.886 104.729 141.762C104.327 141.505 104.286 140.948 104.307 140.473C104.366 139.2 104.594 137.941 104.985 136.727C105.016 136.578 105.098 136.444 105.218 136.35C105.37 136.281 105.543 136.272 105.701 136.325L107.72 136.753C107.013 134.96 106.066 133.271 104.905 131.732C104.858 131.626 104.788 131.532 104.7 131.457C104.612 131.382 104.508 131.327 104.396 131.297C104.285 131.266 104.168 131.261 104.054 131.281C103.94 131.302 103.831 131.347 103.737 131.414C102.163 132.109 100.636 132.908 99.1679 133.806C99.4899 134.076 99.8488 134.299 100.234 134.468C99.4225 135.809 99.2604 137.427 99.1249 138.986C98.9944 140.455 98.8727 142.001 99.4979 143.341C99.8121 143.983 100.255 144.554 100.798 145.018C101.342 145.482 101.975 145.83 102.658 146.039C104.031 146.448 105.485 146.5 106.883 146.19C108.717 145.759 110.495 145.119 112.182 144.28C112.414 144.205 112.615 144.058 112.758 143.861C113.083 143.33 112.407 142.727 111.834 142.44" fill="white"/>
<path d="M111.858 141.913C111.834 141.602 111.747 141.299 111.603 141.022C111.459 140.745 111.261 140.5 111.02 140.301C110.78 140.102 110.502 139.953 110.203 139.864C109.904 139.774 109.59 139.745 109.28 139.779C108.168 139.826 107.336 140.634 106.285 140.756C105.102 140.894 105.25 140.615 105.466 139.213C105.537 138.394 105.765 137.596 106.136 136.862L105.224 137.408C105.98 137.441 106.73 137.564 107.457 137.775C108.165 137.922 109.057 137.246 108.738 136.453C108.008 134.67 106.878 131.355 105.04 130.428C103.202 129.501 100.04 132.006 98.5775 132.877C98.0227 133.202 97.8149 134.173 98.3895 134.603C98.7918 134.914 99.2162 135.195 99.6595 135.443L99.2267 133.934C96.698 138.601 97.0817 146.307 103.362 147.331C106.3 147.803 109.654 146.521 112.234 145.225C114.15 144.268 114.012 142.718 112.244 141.579C111.176 140.908 110.212 142.647 111.302 143.285C112.014 143.707 110.122 144.166 109.644 144.361C108.902 144.677 108.137 144.934 107.354 145.127C105.642 145.508 103.55 145.499 102.009 144.57C99.1479 142.838 99.842 137.576 101.146 134.991C101.282 134.735 101.314 134.436 101.234 134.158C101.154 133.879 100.969 133.642 100.718 133.498L99.8943 132.994L99.7103 134.719C100.704 134.123 102.901 132.421 104.01 132.733C105.206 133.069 106.258 135.991 106.692 137.014L107.972 135.692C106.8 135.45 105.194 134.737 104.286 135.816C103.378 136.895 103.127 139.595 103.288 140.95C103.809 145.377 110.03 140.331 110.57 142.076C110.764 142.756 111.934 142.649 111.831 141.894L111.858 141.913Z" fill="white"/>
</svg>
