<svg width="48" height="48" viewBox="0 0 48 48" fill="none" xmlns="http://www.w3.org/2000/svg">
<path d="M12.33 5V44.05H9.95C9.42828 44.0369 8.93233 43.8205 8.568 43.4468C8.20367 43.0732 7.99984 42.5719 8 42.05V6.95C8.01268 6.43682 8.22219 5.94816 8.58518 5.58518C8.94816 5.22219 9.43682 5.01268 9.95 5H12.33ZM12.33 5V44H37.25C37.7804 44 38.2891 43.7893 38.6642 43.4142C39.0393 43.0391 39.25 42.5304 39.25 42V6.95C39.237 6.42828 39.0205 5.93233 38.6468 5.568C38.2732 5.20367 37.7719 4.99984 37.25 5H12.33ZM21.39 18.04V13.75M19.14 18.24V13.75M23.5 18.04V13.75M25.77 18.24V13.75" stroke="#FF8A00" stroke-width="2" stroke-linecap="round" stroke-linejoin="round"/>
<path d="M25.7699 18.24C25.7233 19.0877 25.3538 19.8854 24.7372 20.469C24.1206 21.0526 23.3039 21.3779 22.4549 21.3779C21.6059 21.3779 20.7892 21.0526 20.1726 20.469C19.556 19.8854 19.1865 19.0877 19.1399 18.24M22.4499 35.25V21.61M32.3799 35.25V13.75C27.3799 15.62 27.6299 25 32.3799 27.35" stroke="#FF8A00" stroke-width="2" stroke-linecap="round" stroke-linejoin="round"/>
</svg>
