<svg width="31" height="31" viewBox="0 0 31 31" fill="none" xmlns="http://www.w3.org/2000/svg">
<path d="M21.9583 24.8258H6.45833V9.04167H15.5V6.45834H6.45833C5.0375 6.45834 3.875 7.62084 3.875 9.04167V24.5417C3.875 25.9625 5.0375 27.125 6.45833 27.125H21.9583C23.3792 27.125 24.5417 25.9625 24.5417 24.5417V15.5H21.9583V24.8258Z" fill="black"/>
<path d="M24.5417 2.58334H21.9584V6.45834H18.0834C18.0963 6.47125 18.0834 9.04167 18.0834 9.04167H21.9584V12.9038C21.9713 12.9167 24.5417 12.9038 24.5417 12.9038V9.04167H28.4167V6.45834H24.5417V2.58334ZM9.04175 11.625H19.3751V14.2083H9.04175V11.625ZM9.04175 15.5V18.0833H19.3751V15.5H15.5001H9.04175ZM9.04175 19.375H19.3751V21.9583H9.04175V19.375Z" fill="black"/>
</svg>
