<svg width="319" height="300" viewBox="0 0 319 300" fill="none" xmlns="http://www.w3.org/2000/svg">
<path d="M319 116.471C319 115 318.475 113.59 317.54 112.549C316.605 111.509 315.338 110.925 314.016 110.925H303.648C318.352 83.9702 319.399 44.37 299.062 44.37C288.645 44.37 287.399 49.0289 284.109 49.9163C280.969 43.8708 279.923 22.185 264.172 22.185C261.871 22.1575 259.614 22.8915 257.688 24.2937C255.762 25.6959 254.255 27.7032 253.356 30.0607C245.082 46.4776 245.63 0 224.297 0C217.817 0 214.777 7.48744 211.537 15.4186C209.942 19.4119 206.553 27.7313 204.359 27.7313C197.68 27.7313 195.687 16.1951 184.422 16.6388C176.397 16.9715 172.31 22.185 165.232 33.2775C143.151 2.93951 116.036 5.54625 94.7031 5.54625C93.3812 5.54625 92.1134 6.13059 91.1786 7.17071C90.2439 8.21083 89.7188 9.62154 89.7188 11.0925V28.785C82.7406 27.343 81.1955 27.7313 49.8438 27.7313C48.5218 27.7313 47.254 28.3156 46.3193 29.3557C45.3845 30.3958 44.8594 31.8065 44.8594 33.2775C44.8442 47.9475 49.6279 62.1222 58.3172 73.155C54.46 74.3336 50.9107 76.518 47.9636 79.5273C45.0164 82.5367 42.7562 86.2842 41.3703 90.4593C37.3794 92.0839 33.8281 94.8171 31.0539 98.3991C28.2797 101.981 26.3747 106.293 25.52 110.925H4.98438C3.66244 110.925 2.39464 111.509 1.45989 112.549C0.525138 113.59 0 115 0 116.471C0.00851224 150.392 9.65433 183.441 27.5585 210.894C45.4628 238.347 70.7088 258.799 99.6875 269.326V293.951C99.6875 295.422 100.213 296.833 101.147 297.873C102.082 298.913 103.35 299.498 104.672 299.498H214.328C215.65 299.498 216.918 298.913 217.853 297.873C218.787 296.833 219.313 295.422 219.313 293.951V269.326C248.291 258.799 273.537 238.347 291.441 210.894C309.346 183.441 318.991 150.392 319 116.471ZM273.044 110.925C271.413 107.609 269.108 104.764 266.312 102.617C263.517 100.469 260.309 99.0788 256.945 98.5569C254.828 95.1863 251.912 92.5364 248.521 90.903C247.388 82.9644 244.718 75.3947 240.695 68.718C246.183 66.4823 252.113 65.9477 257.852 67.1713C263.592 68.395 268.924 71.331 273.281 75.6655C277.637 79.9999 280.852 85.57 282.584 91.7804C284.316 97.9908 284.498 104.608 283.112 110.925H273.044ZM70.4791 110.925C71.2668 107.593 72.741 104.512 74.7847 101.924C76.8285 99.3367 79.3857 97.3143 82.2539 96.0173C85.122 94.7203 88.2221 94.1843 91.3087 94.4518C94.3952 94.7193 97.3834 95.783 100.036 97.5585C97.5139 101.553 95.8122 106.117 95.052 110.925H70.4791ZM143.849 110.925H105.37C106.518 106.225 109.023 102.076 112.5 99.1185C115.977 96.1606 120.233 94.558 124.609 94.558C128.986 94.558 133.241 96.1606 136.718 99.1185C140.196 102.076 142.701 106.225 143.849 110.925ZM154.067 110.925C153.361 106.371 151.817 102.028 149.531 98.1686C150.029 97.9028 150.484 97.5466 150.877 97.1148C153.906 94.5521 157.463 92.8744 161.225 92.235C164.986 91.5956 168.831 92.0148 172.41 93.4543C173.177 93.7404 173.996 93.8142 174.795 93.6693C175.594 93.5243 176.349 93.165 176.995 92.6224C180.793 90.2206 185.087 88.9578 189.456 88.9578C193.825 88.9578 198.119 90.2206 201.917 92.6224C205.257 95.451 206.901 92.0678 214.378 92.0678C227.836 92.0678 226.839 99.1115 231.923 98.8896H234.315C241.991 98.8896 247.923 102.384 249.269 105.656C250.814 110.204 253.904 108.374 259.237 111.202L154.067 110.925ZM237.755 87.7971C236.31 87.7141 234.863 87.7141 233.418 87.7971C229.438 84.668 224.888 82.5494 220.091 81.591C215.294 80.6327 210.366 80.8579 205.655 82.2509C200.661 79.486 195.159 78.0471 189.581 78.0471C184.003 78.0471 178.5 79.486 173.506 82.2509C171.438 79.5439 168.937 77.2873 166.129 75.5954C170.327 68.5094 176.263 62.9118 183.234 59.4664C190.204 56.021 197.916 54.8724 205.456 56.1568C212.995 57.4411 220.045 61.1046 225.77 66.7127C231.495 72.3208 235.654 79.6383 237.755 87.7971ZM184.422 27.7313C190.553 27.7313 192.148 38.8238 204.359 38.8238C216.571 38.8238 220.559 16.1396 224.845 11.0925C235.113 12.3681 234.814 44.37 249.219 44.37C261.331 44.37 261.331 33.2775 264.172 33.2775C274.141 33.2775 270.602 62.9499 284.757 61.0088C293.031 59.844 291.088 55.4625 299.062 55.4625C307.038 55.4625 307.436 84.3585 294.078 107.32C294.83 99.0623 293.605 90.7303 290.527 83.17C287.449 75.6097 282.628 69.0905 276.553 64.2742C270.478 59.458 263.366 56.5163 255.939 55.748C248.512 54.9796 241.034 56.412 234.266 59.8995C226.481 51.4223 216.4 46.0395 205.586 44.5855C194.772 43.1315 183.829 45.6876 174.453 51.8574C173.419 48.9655 172.22 46.1497 170.864 43.4271C178.889 30.4489 180.883 27.7313 184.422 27.7313ZM99.6875 16.6388H113.245C124.884 16.6935 136.224 20.7449 145.716 28.2396C155.208 35.7342 162.389 46.3067 166.279 58.5129C162.332 62.4705 158.968 67.0932 156.31 72.2122L154.516 72.1013C151.33 67.4206 146.892 63.9858 141.84 62.2914C136.788 60.597 131.383 60.7305 126.404 62.6726C123.495 59.676 119.97 57.5177 116.138 56.3865C112.307 55.2554 108.284 55.1856 104.423 56.1835C98.8402 41.9851 99.6875 32.4456 99.6875 16.6388ZM90.1673 40.3212C90.9405 47.3733 92.6191 54.2654 95.1517 60.7869C94.3717 61.3663 93.6228 61.996 92.9088 62.6726C88.6896 61.0242 84.1496 60.6693 79.7647 61.6451C75.3798 62.6209 71.3117 64.8915 67.9869 68.2189C60.8174 60.3356 56.2808 49.9656 55.1272 38.8238C81.0459 38.8238 82.7406 38.3246 90.1673 40.3212ZM46.5042 100.332C47.4308 100.103 48.2794 99.5852 48.9505 98.8385C49.6215 98.0919 50.0871 97.1475 50.2923 96.1165C51.0457 92.4578 52.8886 89.19 55.5218 86.844C58.155 84.498 61.4237 83.2116 64.7969 83.1938C65.8934 83.1938 69.7812 84.6358 71.775 80.6425C73.7032 76.9066 76.8585 74.1486 80.577 72.9487C84.2954 71.7488 88.2872 72.2005 91.7125 74.2088C98.3417 78.1467 98.3916 66.555 109.656 66.555C120.921 66.555 121.22 77.9803 127.5 74.2088C130.926 72.2005 134.917 71.7488 138.636 72.9487C142.354 74.1486 145.51 76.9066 147.438 80.6425C147.926 81.6045 148.661 82.3825 149.549 82.8766C150.437 83.3706 151.438 83.5583 152.422 83.4156C149.926 84.402 147.587 85.8249 145.494 87.6308C143.711 87.5969 141.929 87.7082 140.161 87.9635C135.147 84.6041 129.358 82.9553 123.51 83.2215C117.663 83.4877 112.014 85.6571 107.264 89.461C103.141 86.1475 98.3261 84.0589 93.2755 83.3925C88.2248 82.7261 83.1049 83.504 78.3997 85.6526C73.6945 87.8013 69.5595 91.2497 66.3856 95.6719C63.2117 100.094 61.1038 105.344 60.2611 110.925H35.7878C36.6339 108.302 38.0585 105.957 39.9309 104.106C41.8033 102.255 44.0636 100.957 46.5042 100.332ZM209.344 288.405H109.656V272.543C130.79 278.422 144.198 277.313 174.453 277.313C186.215 277.316 197.933 275.714 209.344 272.543V288.405ZM174.453 266.22H144.547C109.702 266.247 76.2053 251.233 51.1055 224.338C26.0058 197.444 11.2593 160.764 9.96875 122.018L309.031 122.018C307.741 160.764 292.994 197.444 267.894 224.338C242.795 251.233 209.298 266.247 174.453 266.22Z" fill="#FFF6EB"/>
</svg>
