<svg width="32" height="32" viewBox="0 0 32 32" fill="none" xmlns="http://www.w3.org/2000/svg">
<path d="M23.3886 29.617L23.8779 30.1628L23.3622 29.6404C22.7432 30.2419 22.176 30.4362 21.6378 30.4622C21.0469 30.4907 20.3619 30.3207 19.548 29.9643L19.5394 29.9605L19.5307 29.9568C17.2318 28.9842 15.0392 28.9432 12.6222 29.9545L12.6145 29.9578L12.6068 29.9611C11.4439 30.463 10.7659 30.5449 10.3092 30.4814C9.89002 30.4231 9.4512 30.2139 8.82244 29.6411C4.7919 25.4587 3.14747 20.2613 3.56251 16.174C3.76975 14.133 4.48048 12.4312 5.58333 11.2312C6.65382 10.0664 8.17306 9.2848 10.2201 9.16362C11.1553 9.22339 11.9776 9.4825 12.8091 9.7873C12.9173 9.82696 13.0316 9.87016 13.151 9.91527C13.8578 10.1822 14.7412 10.5159 15.5698 10.579L15.7783 10.5948L15.9833 10.5531C16.8468 10.377 17.741 10.0662 18.5162 9.79671C18.7802 9.70494 19.0304 9.61796 19.2609 9.54274C20.2533 9.21889 21.0844 9.02861 21.901 9.08592C24.2062 9.27095 25.7793 10.1567 26.8095 11.6439L26.8313 11.6753L26.8546 11.7055C28.2147 13.47 28.5896 15.7612 28.483 17.9766C28.377 20.1801 27.802 22.1117 27.4911 22.932C26.5063 25.5299 25.2983 27.9049 23.3886 29.617ZM18.9009 4.58758C18.3453 5.12712 17.7313 5.53515 17.1581 5.79024C17.6018 4.06997 18.8881 2.64267 20.5103 1.94141C20.2382 2.95131 19.6526 3.85767 18.9009 4.58758Z" stroke="#1B1B1A" stroke-width="3"/>
</svg>
