<svg width="116" height="116" viewBox="0 0 116 116" fill="none" xmlns="http://www.w3.org/2000/svg">
<g clip-path="url(#clip0_777_1243)">
<path d="M82.9038 5.63685C44.0981 -12.8325 2.85606e-06 15.805 2.85606e-06 58C-0.00325354 68.3781 2.77818 78.5671 8.05419 87.504C13.3302 96.441 20.9075 103.799 29.9958 108.81C39.0841 113.82 49.3504 116.301 59.724 115.993C70.0975 115.684 80.1983 112.598 88.9728 107.056C97.7473 101.514 104.874 93.7188 109.61 84.4841C114.345 75.2494 116.516 64.9132 115.896 54.5536C115.276 44.194 111.888 34.1904 106.085 25.5864C100.282 16.9823 92.2765 10.093 82.9038 5.63685ZM83.375 83.375C81.9329 83.375 80.5498 83.9479 79.5301 84.9676C78.5104 85.9873 77.9375 87.3704 77.9375 88.8125V97.875C77.9375 98.3557 77.7465 98.8167 77.4066 99.1566C77.0667 99.4965 76.6057 99.6875 76.125 99.6875C75.6443 99.6875 75.1833 99.4965 74.8434 99.1566C74.5035 98.8167 74.3125 98.3557 74.3125 97.875C74.3151 97.1302 74.1383 96.3958 73.7972 95.7338C73.4561 95.0718 72.9606 94.5016 72.3527 94.0714C71.7447 93.6412 71.0422 93.3637 70.3044 93.2623C69.5666 93.1609 68.8152 93.2385 68.1138 93.4887C60.3019 96.1894 57.9819 96.5337 54.52 95.5187C53.8714 95.3271 53.187 95.2894 52.5212 95.4085C51.8555 95.5276 51.2267 95.8004 50.6847 96.2051C50.1428 96.6097 49.7027 97.1352 49.3994 97.7397C49.0961 98.3442 48.938 99.0111 48.9375 99.6875C48.9325 100.044 48.8222 100.392 48.6204 100.686C48.4186 100.981 48.1344 101.209 47.8034 101.343C47.4724 101.476 47.1093 101.509 46.7597 101.437C46.41 101.365 46.0895 101.192 45.8381 100.938C45.1313 100.267 45.3125 99.6875 45.3125 96.9144C45.3125 93.7425 43.0106 92.6187 41.2525 91.7487C40.536 91.3832 39.737 91.2095 38.9334 91.2444C38.1298 91.2794 37.349 91.5218 36.6669 91.9481C34.2563 93.4344 34.4375 95.5731 34.4375 97.6756C34.4755 98.0496 34.3962 98.4261 34.2108 98.753C34.0253 99.0799 33.7428 99.3411 33.4023 99.5004C33.0619 99.6597 32.6803 99.7091 32.3105 99.642C31.9407 99.5749 31.6009 99.3944 31.3381 99.1256C30.6313 98.455 30.8125 98.2194 30.8125 92.3469C30.7944 88.0497 29.0814 83.9333 26.0456 80.8919C24.8934 79.7949 23.6833 78.7602 22.4206 77.7925C12.7419 70.0712 17.6538 68.73 12.7781 56.2962C8.22875 44.6419 13.1769 45.8381 15.225 32.625C16.2763 25.7737 17.0375 24.5231 22.475 20.155C25.375 17.8169 30.1963 13.195 31.6281 10.5125C32.1538 9.5156 57.6375 -4.36815 84.39 10.5125C86.2025 12.5244 87.8881 14.9712 89.9544 17.0556C92.945 19.9375 96.9325 22.1306 98.8175 25.375C100.702 28.6194 100.63 33.1144 101.663 37.2287C102.696 41.3431 105.125 45.0769 105.125 48.9375C105.125 52.7981 102.732 56.6769 101.663 60.6462C100.594 64.6156 100.684 69.2919 98.7994 72.5362C97.5487 74.82 92.4375 80.2212 92.4375 90.625C92.4375 91.1057 92.2465 91.5667 91.9066 91.9066C91.5667 92.2465 91.1057 92.4375 90.625 92.4375C90.1443 92.4375 89.6833 92.2465 89.3434 91.9066C89.0035 91.5667 88.8125 91.1057 88.8125 90.625V88.8125C88.8125 87.3704 88.2396 85.9873 87.2199 84.9676C86.2002 83.9479 84.8171 83.375 83.375 83.375ZM58 112.375C15.2069 112.375 -10.875 64.9056 12.2163 28.7462C11.6 31.7006 11.4369 34.0206 10.875 36.25C9.82375 40.165 7.25 44.1706 7.25 48.9375C7.25 53.7044 9.76938 57.6375 10.875 61.625C11.9806 65.6125 11.7994 70.3794 14.1013 74.3125C16.4031 78.2456 20.5538 80.475 23.5806 83.52C27.8219 87.7975 27.1875 92.4375 27.1875 97.875C27.1844 98.6322 27.3395 99.3816 27.6429 100.075C27.9462 100.769 28.3911 101.392 28.949 101.904C29.507 102.416 30.1657 102.805 30.883 103.048C31.6002 103.291 32.3603 103.381 33.1144 103.312C34.4902 103.151 35.7575 102.486 36.6714 101.445C37.5853 100.404 38.0809 99.0608 38.0625 97.6756V95.8631C38.0591 95.6764 38.1047 95.4921 38.1946 95.3284C38.2846 95.1648 38.4159 95.0276 38.5753 94.9304C38.7348 94.8333 38.917 94.7796 39.1036 94.7747C39.2903 94.7698 39.475 94.8138 39.6394 94.9025C41.0894 95.6094 41.6875 95.7906 41.6875 96.8237C41.6875 99.5425 41.3794 101.572 43.2644 103.421C44.2839 104.44 45.6659 105.011 47.1069 105.011C48.5478 105.011 49.9298 104.44 50.9494 103.421C53.07 101.337 52.1638 99.5062 52.8525 98.9987C53.5413 98.4912 54.665 99.5606 58 99.5606C61.8812 99.1594 65.6878 98.22 69.31 96.7694C69.4767 96.7139 69.6546 96.7011 69.8275 96.7322C70.0005 96.7632 70.1628 96.8371 70.2999 96.947C70.4369 97.057 70.5441 97.1995 70.6118 97.3616C70.6796 97.5238 70.7056 97.7002 70.6875 97.875C70.6875 99.3171 71.2604 100.7 72.2801 101.72C73.2998 102.74 74.6829 103.312 76.125 103.312C77.5671 103.312 78.9502 102.74 79.9699 101.72C80.9896 100.7 81.5625 99.3171 81.5625 97.875V88.8125C81.5625 88.3318 81.7535 87.8708 82.0934 87.5309C82.4333 87.1909 82.8943 87 83.375 87C83.8557 87 84.3167 87.1909 84.6566 87.5309C84.9965 87.8708 85.1875 88.3318 85.1875 88.8125V90.625C85.1875 97.6212 96.0625 98.3462 96.0625 89.9362C96.0625 81.5262 101.083 75.9075 101.971 74.3125C104.237 70.3612 104.128 65.54 105.179 61.625C106.231 57.71 108.804 53.7044 108.804 48.9375C108.804 44.1706 106.285 40.2375 105.179 36.25C104.581 34.0569 104.4 31.6462 103.784 28.71C126.875 64.8331 100.884 112.375 58 112.375Z" fill="#FF8A00"/>
<path d="M58 36.25C53.6983 36.25 49.4931 37.5256 45.9164 39.9155C42.3396 42.3055 39.5518 45.7023 37.9056 49.6766C36.2594 53.6509 35.8287 58.0241 36.6679 62.2432C37.5072 66.4623 39.5786 70.3378 42.6204 73.3796C45.6622 76.4214 49.5377 78.4929 53.7568 79.3321C57.9759 80.1713 62.3491 79.7406 66.3234 78.0944C70.2977 76.4482 73.6945 73.6604 76.0845 70.0837C78.4744 66.5069 79.75 62.3017 79.75 58C79.75 52.2315 77.4585 46.6993 73.3796 42.6204C69.3007 38.5415 63.7685 36.25 58 36.25ZM58 76.125C54.4152 76.125 50.9109 75.062 47.9303 73.0704C44.9497 71.0788 42.6265 68.2481 41.2547 64.9361C39.8829 61.6242 39.5239 57.9799 40.2233 54.464C40.9226 50.9481 42.6489 47.7185 45.1837 45.1837C47.7185 42.6489 50.9481 40.9226 54.464 40.2233C57.9799 39.5239 61.6242 39.8828 64.9361 41.2547C68.2481 42.6265 71.0788 44.9496 73.0704 47.9303C75.062 50.9109 76.125 54.4152 76.125 58C76.125 62.807 74.2154 67.4172 70.8163 70.8163C67.4172 74.2154 62.8071 76.125 58 76.125Z" fill="#FF8A00"/>
<path d="M61.625 25.375H65.25C65.7307 25.375 66.1917 25.184 66.5316 24.8441C66.8715 24.5042 67.0625 24.0432 67.0625 23.5625C67.0625 23.0818 66.8715 22.6208 66.5316 22.2809C66.1917 21.941 65.7307 21.75 65.25 21.75H61.625C61.1443 21.75 60.6833 21.941 60.3434 22.2809C60.0035 22.6208 59.8125 23.0818 59.8125 23.5625C59.8125 24.0432 60.0035 24.5042 60.3434 24.8441C60.6833 25.184 61.1443 25.375 61.625 25.375Z" fill="#FF8A00"/>
<path d="M73.4969 34.238C77.4844 36.2498 77.3575 36.2498 77.9375 36.2498C78.3434 36.2474 78.7367 36.1089 79.0544 35.8564C79.3722 35.6039 79.596 35.252 79.69 34.8572C79.784 34.4624 79.7428 34.0474 79.5729 33.6788C79.4031 33.3102 79.1144 33.0093 78.7532 32.8242L75.1282 31.0117C74.7057 30.8358 74.2323 30.8262 73.803 30.9848C73.3738 31.1435 73.0204 31.4587 72.8139 31.8671C72.6074 32.2755 72.563 32.7469 72.6897 33.1867C72.8164 33.6264 73.1048 34.002 73.4969 34.238Z" fill="#FF8A00"/>
<path d="M88.8125 47.1248C89.2184 47.1224 89.6117 46.9839 89.9294 46.7314C90.2472 46.4789 90.471 46.127 90.565 45.7322C90.659 45.3374 90.6178 44.9224 90.4479 44.5538C90.2781 44.1852 89.9894 43.8843 89.6282 43.6992L86.0032 41.8867C85.5807 41.7108 85.1073 41.7012 84.678 41.8598C84.2488 42.0185 83.8954 42.3337 83.6889 42.7421C83.4824 43.1505 83.438 43.6219 83.5647 44.0617C83.6914 44.5014 83.9798 44.877 84.3719 45.113C88.3594 47.1248 88.2325 47.1248 88.8125 47.1248Z" fill="#FF8A00"/>
<path d="M88.8125 59.8125H92.4375C92.9182 59.8125 93.3792 59.6215 93.7191 59.2816C94.059 58.9417 94.25 58.4807 94.25 58C94.25 57.5193 94.059 57.0583 93.7191 56.7184C93.3792 56.3785 92.9182 56.1875 92.4375 56.1875H88.8125C88.3318 56.1875 87.8708 56.3785 87.5309 56.7184C87.191 57.0583 87 57.5193 87 58C87 58.4807 87.191 58.9417 87.5309 59.2816C87.8708 59.6215 88.3318 59.8125 88.8125 59.8125Z" fill="#FF8A00"/>
<path d="M101.5 50.75V47.125C101.5 46.6443 101.309 46.1833 100.969 45.8434C100.629 45.5035 100.168 45.3125 99.6875 45.3125C99.2068 45.3125 98.7458 45.5035 98.4059 45.8434C98.066 46.1833 97.875 46.6443 97.875 47.125V50.75C97.875 51.2307 98.066 51.6917 98.4059 52.0316C98.7458 52.3715 99.2068 52.5625 99.6875 52.5625C100.168 52.5625 100.629 52.3715 100.969 52.0316C101.309 51.6917 101.5 51.2307 101.5 50.75Z" fill="#FF8A00"/>
<path d="M90.625 32.625V29C90.625 28.5193 90.434 28.0583 90.0941 27.7184C89.7542 27.3785 89.2932 27.1875 88.8125 27.1875C88.3318 27.1875 87.8708 27.3785 87.5309 27.7184C87.191 28.0583 87 28.5193 87 29V32.625C87 33.1057 87.191 33.5667 87.5309 33.9066C87.8708 34.2465 88.3318 34.4375 88.8125 34.4375C89.2932 34.4375 89.7542 34.2465 90.0941 33.9066C90.434 33.5667 90.625 33.1057 90.625 32.625Z" fill="#FF8A00"/>
<path d="M79.75 16.3125H76.125C75.6443 16.3125 75.1833 16.5035 74.8434 16.8434C74.5035 17.1833 74.3125 17.6443 74.3125 18.125C74.3125 18.6057 74.5035 19.0667 74.8434 19.4066C75.1833 19.7465 75.6443 19.9375 76.125 19.9375H79.75C80.2307 19.9375 80.6917 19.7465 81.0316 19.4066C81.3715 19.0667 81.5625 18.6057 81.5625 18.125C81.5625 17.6443 81.3715 17.1833 81.0316 16.8434C80.6917 16.5035 80.2307 16.3125 79.75 16.3125Z" fill="#FF8A00"/>
<path d="M34.4375 43.5V39.875C34.4375 39.3943 34.2465 38.9333 33.9066 38.5934C33.5667 38.2535 33.1057 38.0625 32.625 38.0625C32.1443 38.0625 31.6833 38.2535 31.3434 38.5934C31.0035 38.9333 30.8125 39.3943 30.8125 39.875V43.5C30.8125 43.9807 31.0035 44.4417 31.3434 44.7816C31.6833 45.1215 32.1443 45.3125 32.625 45.3125C33.1057 45.3125 33.5667 45.1215 33.9066 44.7816C34.2465 44.4417 34.4375 43.9807 34.4375 43.5Z" fill="#FF8A00"/>
<path d="M23.5625 39.875V34.4375C23.5625 33.9568 23.3715 33.4958 23.0316 33.1559C22.6917 32.816 22.2307 32.625 21.75 32.625C21.2693 32.625 20.8083 32.816 20.4684 33.1559C20.1285 33.4958 19.9375 33.9568 19.9375 34.4375V39.875C19.9375 40.3557 20.1285 40.8167 20.4684 41.1566C20.8083 41.4965 21.2693 41.6875 21.75 41.6875C22.2307 41.6875 22.6917 41.4965 23.0316 41.1566C23.3715 40.8167 23.5625 40.3557 23.5625 39.875Z" fill="#FF8A00"/>
<path d="M35.5613 72.2461L30.1238 70.4336C29.8977 70.3586 29.659 70.3289 29.4214 70.3462C29.1838 70.3635 28.9519 70.4274 28.739 70.5342C28.5261 70.6411 28.3363 70.7889 28.1805 70.9691C28.0247 71.1493 27.9059 71.3584 27.831 71.5846C27.756 71.8107 27.7263 72.0494 27.7435 72.287C27.7608 72.5245 27.8247 72.7564 27.9316 72.9693C28.0384 73.1822 28.1862 73.372 28.3664 73.5278C28.5466 73.6836 28.7558 73.8024 28.9819 73.8774L34.4194 75.6899C34.6455 75.7648 34.8842 75.7946 35.1218 75.7773C35.3594 75.76 35.5913 75.6961 35.8042 75.5893C36.0171 75.4824 36.2068 75.3346 36.3626 75.1544C36.5184 74.9742 36.6372 74.7651 36.7122 74.5389C36.7872 74.3128 36.8169 74.0741 36.7996 73.8365C36.7824 73.5989 36.7185 73.3671 36.6116 73.1542C36.5047 72.9413 36.357 72.7515 36.1767 72.5957C35.9965 72.4399 35.7874 72.3211 35.5613 72.2461Z" fill="#FF8A00"/>
<path d="M47.125 81.5625H41.6875C41.2068 81.5625 40.7458 81.7535 40.4059 82.0934C40.066 82.4333 39.875 82.8943 39.875 83.375C39.875 83.8557 40.066 84.3167 40.4059 84.6566C40.7458 84.9965 41.2068 85.1875 41.6875 85.1875H47.125C47.6057 85.1875 48.0667 84.9965 48.4066 84.6566C48.7465 84.3167 48.9375 83.8557 48.9375 83.375C48.9375 82.8943 48.7465 82.4333 48.4066 82.0934C48.0667 81.7535 47.6057 81.5625 47.125 81.5625Z" fill="#FF8A00"/>
<path d="M57.8006 84.3718C57.5646 83.9797 57.1891 83.6913 56.7493 83.5646C56.3095 83.4379 55.8381 83.4823 55.4297 83.6888C55.0213 83.8953 54.7061 84.2486 54.5475 84.6779C54.3888 85.1072 54.3984 85.5806 54.5743 86.003C56.3868 89.628 56.5681 90.6249 58 90.6249C58.3089 90.624 58.6125 90.5441 58.8819 90.3928C59.1513 90.2415 59.3776 90.0239 59.5392 89.7606C59.7008 89.4972 59.7925 89.197 59.8054 88.8883C59.8183 88.5796 59.7521 88.2727 59.6131 87.9968L57.8006 84.3718Z" fill="#FF8A00"/>
<path d="M75.545 81.6531L70.1075 83.4656C69.6509 83.6194 69.274 83.9484 69.0599 84.3801C68.8457 84.8117 68.8118 85.3108 68.9657 85.7675C69.1195 86.2242 69.4484 86.601 69.8801 86.8152C70.3118 87.0293 70.8109 87.0632 71.2675 86.9094L76.705 85.0969C77.1617 84.943 77.5386 84.6141 77.7527 84.1824C77.9669 83.7507 78.0007 83.2517 77.8469 82.795C77.6931 82.3383 77.3642 81.9615 76.9325 81.7473C76.5008 81.5332 76.0017 81.4993 75.545 81.6531Z" fill="#FF8A00"/>
<path d="M90.6251 74.3125C90.9851 74.3146 91.3376 74.2094 91.6376 74.0104C91.9376 73.8114 92.1715 73.5275 92.3096 73.195C92.4476 72.8625 92.4835 72.4965 92.4127 72.1435C92.3419 71.7905 92.1676 71.4666 91.912 71.2131L88.287 67.5881C87.9457 67.2468 87.4828 67.0551 87.0001 67.0551C86.5174 67.0551 86.0545 67.2468 85.7132 67.5881C85.3719 67.9294 85.1802 68.3923 85.1802 68.875C85.1802 69.3576 85.3719 69.8205 85.7132 70.1618C89.6645 74.1131 89.6463 74.3125 90.6251 74.3125Z" fill="#FF8A00"/>
<path d="M45.3126 30.8124L48.9376 32.6249C49.3656 32.8215 49.8534 32.8438 50.2976 32.6869C50.7417 32.5301 51.1074 32.2066 51.3171 31.7848C51.5268 31.363 51.5641 30.8762 51.421 30.4274C51.278 29.9786 50.9658 29.6031 50.5507 29.3805L46.9257 27.568C46.4977 27.3714 46.0099 27.3492 45.5658 27.506C45.1216 27.6628 44.7559 27.9864 44.5462 28.4081C44.3365 28.8299 44.2992 29.3168 44.4423 29.7655C44.5854 30.2143 44.8975 30.5898 45.3126 30.8124Z" fill="#FF8A00"/>
<path d="M28.2567 59.1962L26.4442 55.5712C26.2216 55.1561 25.8462 54.844 25.3974 54.7009C24.9486 54.5579 24.4618 54.5951 24.04 54.8048C23.6182 55.0145 23.2946 55.3802 23.1378 55.8244C22.981 56.2685 23.0033 56.7563 23.1999 57.1843L25.0124 60.8093C25.235 61.2244 25.6104 61.5366 26.0592 61.6796C26.508 61.8227 26.9949 61.7854 27.4166 61.5757C27.8384 61.366 28.162 61.0003 28.3188 60.5562C28.4756 60.112 28.4533 59.6242 28.2567 59.1962Z" fill="#FF8A00"/>
<path d="M58 12.6875V9.0625C58 8.5818 57.809 8.12078 57.4691 7.78087C57.1292 7.44096 56.6682 7.25 56.1875 7.25C55.7068 7.25 55.2458 7.44096 54.9059 7.78087C54.566 8.12078 54.375 8.5818 54.375 9.0625V12.6875C54.375 13.1682 54.566 13.6292 54.9059 13.9691C55.2458 14.309 55.7068 14.5 56.1875 14.5C56.6682 14.5 57.1292 14.309 57.4691 13.9691C57.809 13.6292 58 13.1682 58 12.6875Z" fill="#FF8A00"/>
<path d="M39.3856 17.1281C43.3731 19.1038 43.2462 19.1219 43.8262 19.1219C44.2321 19.1195 44.6254 18.9809 44.9431 18.7284C45.2609 18.4759 45.4847 18.124 45.5787 17.7292C45.6727 17.3344 45.6314 16.9194 45.4616 16.5508C45.2917 16.1822 45.003 15.8813 44.6418 15.6963L41.0168 13.8838C40.5866 13.6674 40.088 13.6309 39.6309 13.7821C39.1737 13.9334 38.7953 14.2601 38.579 14.6903C38.3627 15.1205 38.3261 15.6191 38.4774 16.0763C38.6287 16.5334 38.9553 16.9118 39.3856 17.1281Z" fill="#FF8A00"/>
<path d="M32.625 29H36.25C36.7307 29 37.1917 28.809 37.5316 28.4691C37.8715 28.1292 38.0625 27.6682 38.0625 27.1875C38.0625 26.7068 37.8715 26.2458 37.5316 25.9059C37.1917 25.566 36.7307 25.375 36.25 25.375H32.625C32.1443 25.375 31.6833 25.566 31.3434 25.9059C31.0035 26.2458 30.8125 26.7068 30.8125 27.1875C30.8125 27.6682 31.0035 28.1292 31.3434 28.4691C31.6833 28.809 32.1443 29 32.625 29Z" fill="#FF8A00"/>
</g>
<defs>
<clipPath id="clip0_777_1243">
<rect width="116" height="116" fill="white"/>
</clipPath>
</defs>
</svg>
