<svg width="200" height="199" viewBox="0 0 200 199" fill="none" xmlns="http://www.w3.org/2000/svg">
<path d="M28.7555 2.51416H23.4517C11.8892 2.51416 2.51587 11.8875 2.51587 23.45V28.7537C2.51587 40.3163 11.8892 49.6896 23.4517 49.6896H28.7555C40.318 49.6896 49.6913 40.3163 49.6913 28.7537V23.45C49.6913 11.8875 40.318 2.51416 28.7555 2.51416Z" fill="#FFEBD3"/>
<path d="M28.7575 47.4752C25.4915 47.4752 22.1208 47.7124 18.9246 46.9169C16.3581 46.2705 13.9565 45.0906 11.8763 43.4541C9.79613 41.8176 8.08406 39.7613 6.85163 37.419C3.2716 30.5939 3.69033 19.2118 8.01009 12.8682C13.1464 5.33131 22.1976 3.95652 30.6627 4.81489C41.5354 5.92449 47.4742 15.2409 47.4742 25.4437C47.4742 30.2729 47.188 34.7741 44.4524 38.9682C42.7305 41.5606 40.3996 43.6916 37.6635 45.1746C34.9274 46.6576 31.8695 47.4475 28.7575 47.4752C25.9032 47.538 25.8963 51.9694 28.7575 51.9066C34.8711 51.8182 40.7095 49.3503 45.0329 45.0269C49.3563 40.7035 51.8242 34.8651 51.9125 28.7515C52.0033 24.3201 52.08 19.784 50.5168 15.555C48.44 9.89748 44.2568 5.2617 38.8416 2.61663C30.0416 -1.57054 16.7682 -0.77498 9.08479 5.31037C0.619726 12.0168 -1.54364 24.3131 1.00356 34.46C1.84464 37.7257 3.38472 40.7698 5.51737 43.382C7.65002 45.9942 10.3244 48.1122 13.3557 49.5897C18.3105 51.9624 23.4049 51.9066 28.7505 51.9066C31.6187 51.9136 31.6187 47.4752 28.7575 47.4752Z" fill="#FFEBD3"/>
<path d="M33.0634 15.6252C28.5692 20.5591 25.1636 26.6654 21.4929 32.2204L25.2962 31.7319C23.5725 30.064 22.6444 27.9913 21.1091 26.2257C19.8948 24.83 17.2708 25.9187 17.3964 27.761C17.6058 30.8107 19.5947 33.2532 21.8837 35.1514C23.0421 36.1214 24.8636 36.1284 25.6801 34.6629C28.9181 28.8567 32.7424 23.0365 35.0524 16.7767C35.4641 15.6601 33.8381 14.7738 33.0704 15.6252H33.0634Z" fill="#FF8A00"/>
<path d="M68.9465 17.7183L84.9973 18.0393C89.8823 18.1301 95.1651 18.7861 100.001 18.1859C105.905 17.488 107.154 8.29022 101.641 5.87562C94.872 2.89575 96.1282 14.25 97.496 17.3136C98.8638 20.3772 101.376 22.4359 104.768 22.2963C108.955 22.1218 111.9 18.807 115.054 16.4552L112.381 15.3735C112.744 17.9835 115.354 18.6325 117.629 18.7232C122.842 18.9326 128.251 18.2975 133.471 18.0882C143.792 17.6695 154.169 17.5439 164.47 16.7971C166.403 16.6576 166.459 13.7545 164.47 13.7475C156.214 13.7475 147.923 14.1802 139.675 14.4454C137.267 14.5151 116.129 16.0714 115.892 14.4454C115.817 14.1766 115.682 13.9285 115.497 13.7201C115.312 13.5117 115.081 13.3487 114.823 13.2435C114.565 13.1383 114.286 13.0938 114.008 13.1134C113.73 13.1331 113.46 13.2163 113.219 13.3567C110.037 15.7434 104.147 22.1497 100.916 16.4343C100.273 15.2967 98.9475 11.64 99.6314 10.3838C100.371 8.98808 101.355 10.1465 101.669 11.3608C102.227 13.4963 100.015 14.6896 98.3823 15.0804C96.4143 15.548 93.7205 15.0804 91.6898 15.0804L83.6574 15.1153L68.9325 15.1921C68.6074 15.216 68.3034 15.3621 68.0815 15.6009C67.8597 15.8397 67.7363 16.1536 67.7363 16.4796C67.7363 16.8056 67.8597 17.1195 68.0815 17.3584C68.3034 17.5972 68.6074 17.7432 68.9325 17.7672L68.9465 17.7183Z" fill="#FFAC4B"/>
<path d="M69.7066 39.3523C74.0683 41.5505 76.5457 37.3424 77.2505 33.574L74.0613 33.1413C74.3893 36.0933 75.3244 39.8129 78.9463 40.1199C79.6346 40.0936 80.3169 39.981 80.9771 39.7849C81.9529 39.6453 82.9466 39.6998 83.9012 39.9454C86.1622 40.2734 88.7024 39.9454 90.9845 39.8757C102.536 39.5779 114.086 39.2453 125.633 38.8777C127.552 38.8149 127.566 35.863 125.633 35.8839C116.854 35.9723 108.075 36.0956 99.296 36.2538C95.1437 36.3305 90.9844 36.4701 86.8252 36.4841C85.1015 36.4841 83.3359 35.7862 81.668 35.9048C81.2702 35.9048 80.7747 36.2956 80.4258 36.2607C79.6225 36.1872 78.8711 35.8313 78.3052 35.2565C77.7393 34.6816 77.3953 33.9248 77.3343 33.1204C77.118 31.5083 74.48 30.6918 74.1451 32.6877C73.9148 34.0834 73.51 37.9286 70.7465 36.9237C69.3508 36.4143 68.4017 38.6614 69.7346 39.3313L69.7066 39.3523Z" fill="#FFAC4B"/>
<path d="M137.938 37.9568L138.252 37.6358C138.376 37.5204 138.469 37.3767 138.524 37.2171C138.598 37.0573 138.636 36.8835 138.636 36.7077C138.636 36.5318 138.598 36.358 138.524 36.1982C138.469 36.0386 138.376 35.8949 138.252 35.7795L137.987 35.5701C137.774 35.4496 137.534 35.387 137.289 35.3887L136.94 35.4375C136.72 35.4987 136.521 35.6166 136.361 35.7795L136.047 36.0935C135.917 36.2063 135.823 36.3541 135.775 36.5192C135.69 36.6727 135.649 36.8465 135.656 37.0217C135.649 37.1991 135.69 37.3751 135.775 37.5311C135.823 37.6963 135.917 37.8441 136.047 37.9568L136.312 38.1592C136.513 38.2782 136.742 38.3408 136.975 38.3407L137.324 38.2918C137.544 38.2298 137.745 38.1148 137.91 37.9568H137.938Z" fill="#FFAC4B"/>
<path d="M144.281 38.7661C146.074 38.7661 146.081 35.9746 144.281 35.9746C142.48 35.9746 142.487 38.7661 144.281 38.7661Z" fill="#FFAC4B"/>
<path d="M154.567 37.3702V37.0491C154.573 36.8629 154.532 36.678 154.448 36.5118C154.383 36.3445 154.284 36.1929 154.156 36.0666C154.029 35.9403 153.876 35.8424 153.708 35.779C153.543 35.6906 153.357 35.6495 153.171 35.6604L152.801 35.7092C152.568 35.7702 152.356 35.8932 152.187 36.0651L151.971 36.3513C151.845 36.5626 151.778 36.8034 151.775 37.0491V37.3702C151.764 37.559 151.805 37.7472 151.894 37.9145C151.95 38.0906 152.051 38.2491 152.187 38.3751C152.463 38.627 152.819 38.7729 153.192 38.7868L153.569 38.738C153.806 38.6745 154.023 38.5493 154.197 38.3751L154.42 38.089C154.543 37.8767 154.611 37.6365 154.615 37.3911L154.567 37.3702Z" fill="#FFAC4B"/>
<path d="M62.7987 75.9844H57.4949C45.9324 75.9844 36.5591 85.3577 36.5591 96.9202V102.224C36.5591 113.787 45.9324 123.16 57.4949 123.16H62.7987C74.3612 123.16 83.7345 113.787 83.7345 102.224V96.9202C83.7345 85.3577 74.3612 75.9844 62.7987 75.9844Z" fill="#FFEBD3"/>
<path d="M62.7979 120.945C59.5319 120.945 56.1612 121.183 52.965 120.387C50.3997 119.74 47.9995 118.56 45.9206 116.923C43.8417 115.287 42.1306 113.231 40.899 110.889C37.312 104.064 37.7307 92.682 42.0574 86.3384C47.1867 78.8015 56.245 77.4267 64.703 78.2851C75.5757 79.3877 81.5215 88.7112 81.5215 98.9139C81.5215 103.743 81.2354 108.244 78.4928 112.438C76.7722 115.032 74.4416 117.164 71.7052 118.647C68.9688 120.13 65.9103 120.92 62.7979 120.945C59.9506 121.008 59.9366 125.44 62.7979 125.377C68.912 125.29 74.7514 122.823 79.0752 118.499C83.399 114.175 85.8663 108.336 85.9529 102.222C86.0506 97.7833 86.1204 93.2472 84.5572 89.0252C82.4833 83.3682 78.3024 78.7322 72.889 76.0868C64.0819 71.8997 50.8086 72.6952 43.1252 78.7806C34.6601 85.487 32.4967 97.7833 35.0509 107.93C35.8853 111.203 37.4225 114.255 39.5556 116.874C41.6887 119.493 44.3666 121.616 47.403 123.095C52.3579 125.468 57.4522 125.412 62.7979 125.412C65.6521 125.377 65.6591 120.945 62.7979 120.945Z" fill="#FFEBD3"/>
<path d="M67.1037 89.0671C62.6095 94.001 59.2039 100.107 55.5401 105.662L59.3365 105.174C57.6128 103.499 56.6916 101.433 55.1493 99.6676C53.942 98.2719 51.3111 99.3606 51.4367 101.203C51.6461 104.253 53.642 106.688 55.924 108.593C57.0824 109.556 58.9108 109.563 59.7273 108.105C62.9584 102.299 66.7827 96.4714 69.0926 90.2186C69.5044 89.102 67.8853 88.2157 67.1107 89.0671H67.1037Z" fill="#FF8A00"/>
<path d="M102.987 91.2185L119.038 91.5326C123.923 91.6303 129.205 92.2863 134.049 91.6861C139.946 90.9882 141.202 81.7904 135.689 79.3688C128.912 76.396 130.176 87.7432 131.536 90.8138C132.897 93.8844 135.423 95.9361 138.808 95.7965C143.03 95.622 145.947 92.3072 149.102 89.9554L146.443 88.9016C146.799 91.5186 149.409 92.1606 151.684 92.2583C156.904 92.4677 162.312 91.8327 167.532 91.6163C177.846 91.2046 188.231 91.079 198.531 90.3322C200.464 90.1857 200.513 87.2896 198.531 87.2826C190.268 87.2477 181.985 87.7153 173.729 87.9805C171.328 88.0502 150.19 89.6065 149.953 87.9805C149.879 87.7117 149.744 87.4636 149.558 87.2552C149.373 87.0468 149.143 86.8838 148.884 86.7786C148.626 86.6734 148.347 86.6289 148.069 86.6486C147.791 86.6682 147.521 86.7514 147.28 86.8918C144.098 89.2785 138.208 95.6848 134.97 89.9694C134.328 88.8319 133.009 85.1751 133.693 83.9119C134.377 82.6488 135.409 83.6816 135.724 84.8959C136.282 87.0314 134.07 88.2247 132.437 88.6155C130.469 89.0831 127.782 88.6155 125.744 88.6155H117.712L102.987 88.6853C102.644 88.6853 102.316 88.8213 102.074 89.0634C101.832 89.3055 101.696 89.6339 101.696 89.9763C101.696 90.3188 101.832 90.6471 102.074 90.8892C102.316 91.1314 102.644 91.2674 102.987 91.2674V91.2185Z" fill="#FFAC4B"/>
<path d="M103.749 112.83C108.118 115.029 110.588 110.813 111.293 107.052L108.104 106.619C108.439 109.571 109.367 113.291 112.989 113.598C113.677 113.571 114.359 113.459 115.02 113.263C115.993 113.123 116.984 113.178 117.937 113.423C120.205 113.751 122.738 113.423 125.02 113.354C136.576 113.051 148.126 112.719 159.669 112.356C161.588 112.293 161.602 109.341 159.669 109.362C150.89 109.45 142.113 109.574 133.338 109.732C129.151 109.809 125.02 109.948 120.868 109.955C119.144 109.955 117.378 109.292 115.71 109.383C115.306 109.383 114.817 109.774 114.461 109.739C113.658 109.664 112.908 109.308 112.342 108.733C111.777 108.158 111.432 107.402 111.37 106.598C111.16 104.986 108.515 104.17 108.187 106.166C107.957 107.561 107.545 111.407 104.782 110.402C103.386 109.892 102.444 112.139 103.77 112.809L103.749 112.83Z" fill="#FFAC4B"/>
<path d="M171.978 111.458L172.292 111.137C172.42 111.025 172.514 110.88 172.565 110.718C172.643 110.56 172.683 110.385 172.683 110.209C172.683 110.032 172.643 109.858 172.565 109.699C172.514 109.537 172.42 109.392 172.292 109.28L172.027 109.071C171.827 108.952 171.597 108.889 171.364 108.89L171.015 108.938C170.795 108.998 170.594 109.116 170.436 109.28L170.115 109.594C169.99 109.711 169.896 109.858 169.843 110.02C169.76 110.174 169.721 110.348 169.731 110.523C169.722 110.699 169.76 110.876 169.843 111.032C169.898 111.194 169.991 111.34 170.115 111.458L170.38 111.66C170.592 111.783 170.833 111.846 171.078 111.842L171.427 111.793C171.645 111.732 171.844 111.616 172.006 111.458H171.978Z" fill="#FFAC4B"/>
<path d="M178.329 112.238C180.122 112.238 180.122 109.446 178.329 109.446C176.535 109.446 176.528 112.238 178.329 112.238Z" fill="#FFAC4B"/>
<path d="M188.637 110.841V110.52C188.647 110.334 188.606 110.148 188.518 109.983C188.456 109.825 188.362 109.682 188.242 109.562C188.121 109.442 187.978 109.348 187.82 109.285C187.657 109.194 187.47 109.153 187.283 109.167L186.906 109.215C186.674 109.279 186.463 109.402 186.292 109.571L186.076 109.85C185.953 110.063 185.888 110.303 185.887 110.548V110.869C185.879 111.059 185.922 111.247 186.013 111.414C186.076 111.586 186.175 111.742 186.304 111.872C186.433 112.002 186.588 112.103 186.76 112.167C186.93 112.253 187.12 112.293 187.311 112.286L187.688 112.237C187.924 112.169 188.139 112.045 188.316 111.874L188.532 111.581C188.659 111.371 188.727 111.129 188.728 110.883L188.637 110.841Z" fill="#FFAC4B"/>
<path d="M28.7555 149.455H23.4517C11.8892 149.455 2.51587 158.828 2.51587 170.39V175.694C2.51587 187.257 11.8892 196.63 23.4517 196.63H28.7555C40.318 196.63 49.6913 187.257 49.6913 175.694V170.39C49.6913 158.828 40.318 149.455 28.7555 149.455Z" fill="#FFEBD3"/>
<path d="M28.7575 194.419C25.4915 194.419 22.1208 194.656 18.9246 193.86C16.3574 193.213 13.9555 192.032 11.8753 190.394C9.79504 188.757 8.0833 186.699 6.85163 184.355C3.2716 177.53 3.69033 166.155 8.01009 159.812C13.1464 152.275 22.1976 150.9 30.6627 151.758C41.5354 152.861 47.4742 162.184 47.4742 172.387C47.4742 177.216 47.188 181.71 44.4524 185.912C42.7305 188.504 40.3996 190.635 37.6635 192.118C34.9274 193.601 31.8695 194.391 28.7575 194.419C25.9032 194.481 25.8963 198.913 28.7575 198.85C34.8711 198.762 40.7095 196.294 45.0329 191.97C49.3563 187.647 51.8242 181.808 51.9125 175.695C52.0033 171.256 52.08 166.72 50.5168 162.498C48.44 156.841 44.2568 152.205 38.8416 149.56C30.0416 145.373 16.7682 146.168 9.08479 152.254C0.619726 158.96 -1.54364 171.256 1.00356 181.403C1.84464 184.669 3.38472 187.713 5.51737 190.325C7.65002 192.938 10.3244 195.056 13.3557 196.533C18.3105 198.906 23.4049 198.85 28.7505 198.85C31.6187 198.85 31.6187 194.419 28.7575 194.419Z" fill="#FFEBD3"/>
<path d="M33.0634 162.54C28.5692 167.474 25.1636 173.58 21.4929 179.135L25.2962 178.647C23.5725 176.972 22.6444 174.906 21.1091 173.141C19.8948 171.745 17.2708 172.827 17.3964 174.676C17.6058 177.719 19.5947 180.161 21.8837 182.066C23.0421 183.029 24.8636 183.036 25.6801 181.578C28.9181 175.765 32.7424 169.945 35.0524 163.692C35.4641 162.575 33.8381 161.689 33.0704 162.54H33.0634Z" fill="#FF8A00"/>
<path d="M68.9466 164.69L84.9974 165.004C89.8824 165.102 95.1653 165.758 100.001 165.158C105.905 164.46 107.155 155.262 101.641 152.841C94.8722 149.868 96.1283 161.215 97.4961 164.285C98.8639 167.356 101.376 169.408 104.768 169.268C108.955 169.094 111.9 165.779 115.054 163.427L112.382 162.338C112.744 164.955 115.354 165.597 117.629 165.695C122.842 165.905 128.251 165.262 133.471 165.053C143.792 164.641 154.169 164.516 164.47 163.769C166.403 163.622 166.459 160.726 164.47 160.719C156.214 160.684 147.924 161.152 139.675 161.417C137.267 161.487 116.129 163.036 115.892 161.417C115.818 161.148 115.683 160.9 115.497 160.692C115.312 160.484 115.081 160.321 114.823 160.215C114.565 160.11 114.286 160.066 114.008 160.085C113.73 160.105 113.46 160.188 113.219 160.329C110.037 162.715 104.147 169.115 100.916 163.406C100.274 162.269 98.9477 158.612 99.6316 157.349C100.315 156.086 101.355 157.118 101.669 158.333C102.228 160.468 100.015 161.662 98.3824 162.052C96.4144 162.52 93.7207 162.052 91.6899 162.052L83.6575 162.087L68.9326 162.157C68.5902 162.157 68.2619 162.293 68.0198 162.535C67.7776 162.777 67.6416 163.106 67.6416 163.448C67.6416 163.79 67.7776 164.119 68.0198 164.361C68.2619 164.603 68.5902 164.739 68.9326 164.739L68.9466 164.69Z" fill="#FFAC4B"/>
<path d="M69.7066 186.301C74.0683 188.499 76.5457 184.284 77.2505 180.522L74.0613 180.09C74.3893 183.042 75.3244 186.761 78.9463 187.068C79.6346 187.042 80.3169 186.929 80.9771 186.733C81.9529 186.594 82.9466 186.648 83.9012 186.894C86.1622 187.222 88.7024 186.894 90.9845 186.824C102.536 186.526 114.086 186.194 125.633 185.826C127.552 185.763 127.566 182.811 125.633 182.832C116.854 182.921 108.075 183.044 99.296 183.202C95.1437 183.279 90.9844 183.418 86.8252 183.425C85.1015 183.425 83.3359 182.727 81.668 182.853C81.2702 182.853 80.7747 183.244 80.4258 183.209C79.6225 183.135 78.8711 182.78 78.3052 182.205C77.7393 181.63 77.3953 180.873 77.3343 180.069C77.118 178.457 74.48 177.64 74.1451 179.636C73.9148 181.032 73.51 184.877 70.7465 183.872C69.3508 183.363 68.4017 185.61 69.7346 186.28L69.7066 186.301Z" fill="#FFAC4B"/>
<path d="M137.938 184.928L138.252 184.607C138.376 184.492 138.469 184.348 138.524 184.189C138.598 184.029 138.636 183.855 138.636 183.679C138.636 183.503 138.598 183.33 138.524 183.17C138.469 183.01 138.376 182.866 138.252 182.751L137.987 182.542C137.776 182.417 137.534 182.355 137.289 182.36L136.94 182.409C136.72 182.47 136.521 182.588 136.361 182.751L136.047 183.065C135.917 183.178 135.823 183.326 135.775 183.491C135.69 183.644 135.649 183.818 135.656 183.993C135.65 184.171 135.691 184.346 135.775 184.503C135.824 184.667 135.919 184.814 136.047 184.928L136.312 185.131C136.513 185.25 136.742 185.312 136.975 185.312L137.324 185.263C137.544 185.201 137.745 185.086 137.91 184.928H137.938Z" fill="#FFAC4B"/>
<path d="M144.281 185.702C146.074 185.702 146.081 182.91 144.281 182.91C142.48 182.91 142.487 185.702 144.281 185.702Z" fill="#FFAC4B"/>
<path d="M154.567 184.311V183.99C154.573 183.804 154.532 183.619 154.448 183.453C154.393 183.28 154.291 183.126 154.155 183.006C154.035 182.872 153.88 182.773 153.708 182.72C153.544 182.63 153.358 182.586 153.171 182.595L152.801 182.651C152.568 182.712 152.356 182.835 152.187 183.006L151.971 183.286C151.845 183.497 151.778 183.738 151.775 183.984V184.305C151.764 184.493 151.805 184.682 151.894 184.849C151.95 185.025 152.051 185.183 152.187 185.309C152.315 185.442 152.473 185.542 152.647 185.603C152.816 185.688 153.003 185.729 153.192 185.721L153.569 185.672C153.806 185.609 154.023 185.484 154.197 185.309L154.42 185.016C154.545 184.805 154.613 184.564 154.615 184.318L154.567 184.311Z" fill="#FFAC4B"/>
</svg>
